<svg width="20" height="20" viewBox="0 0 20 20" fill="none" xmlns="http://www.w3.org/2000/svg">
<path d="M5.5 1V4.6" stroke="#C4C4C4" stroke-width="1.3" stroke-linecap="round"/>
<path d="M14.5 1V4.6" stroke="#C4C4C4" stroke-width="1.3" stroke-linecap="round"/>
<rect x="1.6" y="2.8" width="16.8" height="15.6" rx="2.4" stroke="#C4C4C4" stroke-width="1.2"/>
<path d="M4.375 8.7C4.375 8.42386 4.59886 8.2 4.875 8.2H6.125C6.40114 8.2 6.625 8.42386 6.625 8.7V9.88182C6.625 10.158 6.40114 10.3818 6.125 10.3818H4.875C4.59886 10.3818 4.375 10.158 4.375 9.88182V8.7Z" fill="#C4C4C4"/>
<path d="M8.875 8.7C8.875 8.42386 9.09886 8.2 9.375 8.2H10.625C10.9011 8.2 11.125 8.42386 11.125 8.7V9.88182C11.125 10.158 10.9011 10.3818 10.625 10.3818H9.375C9.09886 10.3818 8.875 10.158 8.875 9.88182V8.7Z" fill="#C4C4C4"/>
<path d="M13.375 8.7C13.375 8.42386 13.5989 8.2 13.875 8.2H15.125C15.4011 8.2 15.625 8.42386 15.625 8.7V9.88182C15.625 10.158 15.4011 10.3818 15.125 10.3818H13.875C13.5989 10.3818 13.375 10.158 13.375 9.88182V8.7Z" fill="#C4C4C4"/>
<path d="M4.375 12.5182C4.375 12.242 4.59886 12.0182 4.875 12.0182H6.125C6.40114 12.0182 6.625 12.242 6.625 12.5182V13.7C6.625 13.9761 6.40114 14.2 6.125 14.2H4.875C4.59886 14.2 4.375 13.9761 4.375 13.7V12.5182Z" fill="#C4C4C4"/>
<path d="M8.875 12.5182C8.875 12.242 9.09886 12.0182 9.375 12.0182H10.625C10.9011 12.0182 11.125 12.242 11.125 12.5182V13.7C11.125 13.9761 10.9011 14.2 10.625 14.2H9.375C9.09886 14.2 8.875 13.9761 8.875 13.7V12.5182Z" fill="#C4C4C4"/>
<path d="M13.375 12.5182C13.375 12.242 13.5989 12.0182 13.875 12.0182H15.125C15.4011 12.0182 15.625 12.242 15.625 12.5182V13.7C15.625 13.9761 15.4011 14.2 15.125 14.2H13.875C13.5989 14.2 13.375 13.9761 13.375 13.7V12.5182Z" fill="#C4C4C4"/>
</svg>
