<svg width="16" height="16" viewBox="0 0 16 16" fill="none" xmlns="http://www.w3.org/2000/svg">
<path d="M8.00157 4.41172C6.01407 4.41172 4.41095 6.01484 4.41095 8.00234C4.41095 9.98984 6.01407 11.593 8.00157 11.593C9.98907 11.593 11.5922 9.98984 11.5922 8.00234C11.5922 6.01484 9.98907 4.41172 8.00157 4.41172ZM8.00157 10.3367C6.7172 10.3367 5.6672 9.28984 5.6672 8.00234C5.6672 6.71484 6.71407 5.66796 8.00157 5.66796C9.28907 5.66796 10.3359 6.71484 10.3359 8.00234C10.3359 9.28984 9.28594 10.3367 8.00157 10.3367ZM12.5766 4.26484C12.5766 4.73047 12.2016 5.10234 11.7391 5.10234C11.2734 5.10234 10.9016 4.72734 10.9016 4.26484C10.9016 3.80234 11.2766 3.42734 11.7391 3.42734C12.2016 3.42734 12.5766 3.80234 12.5766 4.26484ZM14.9547 5.11484C14.9016 3.99297 14.6453 2.99922 13.8234 2.18047C13.0047 1.36172 12.0109 1.10547 10.8891 1.04922C9.73282 0.983594 6.2672 0.983594 5.11095 1.04922C3.9922 1.10234 2.99845 1.35859 2.17658 2.17734C1.3547 2.99609 1.10158 3.98984 1.04533 5.11172C0.979703 6.26796 0.979703 9.73359 1.04533 10.8898C1.09845 12.0117 1.3547 13.0055 2.17658 13.8242C2.99845 14.643 3.98907 14.8992 5.11095 14.9555C6.2672 15.0211 9.73282 15.0211 10.8891 14.9555C12.0109 14.9023 13.0047 14.6461 13.8234 13.8242C14.6422 13.0055 14.8984 12.0117 14.9547 10.8898C15.0203 9.73359 15.0203 6.27109 14.9547 5.11484ZM13.4609 12.1305C13.2172 12.743 12.7453 13.2148 12.1297 13.4617C11.2078 13.8273 9.02032 13.743 8.00157 13.743C6.98282 13.743 4.7922 13.8242 3.87345 13.4617C3.26095 13.218 2.78908 12.7461 2.5422 12.1305C2.17658 11.2086 2.26095 9.02109 2.26095 8.00234C2.26095 6.98359 2.1797 4.79297 2.5422 3.87422C2.78595 3.26172 3.25782 2.78984 3.87345 2.54297C4.79532 2.17734 6.98282 2.26172 8.00157 2.26172C9.02032 2.26172 11.2109 2.18047 12.1297 2.54297C12.7422 2.78672 13.2141 3.25859 13.4609 3.87422C13.8266 4.79609 13.7422 6.98359 13.7422 8.00234C13.7422 9.02109 13.8266 11.2117 13.4609 12.1305Z" fill="#C4C4C4"/>
</svg>
