<svg width="24" height="24" viewBox="0 0 24 24" fill="none" xmlns="http://www.w3.org/2000/svg">
<path d="M9.00427 13.4297L11.297 15.8484C11.6791 16.2469 12.4041 16.2469 12.7863 15.8484L15.079 13.4297L20.9479 19.4625H3.13533L9.00427 13.4297ZM7.65706 12.0094L2.02327 17.7984V6.06094L7.65706 12.0094ZM12.0416 13.7906L3.2774 4.5375H20.8009L12.0416 13.7906ZM22.0502 6.06094V17.7984L16.4164 12.0094L22.0502 6.06094ZM23.0006 2.625H1.00428C0.450704 2.625 0 3.05156 0 3.58125V20.4188C0 20.9484 0.450704 21.375 1.00428 21.375H22.9957C23.5493 21.375 24 20.9484 24 20.4188V3.58125C24.0049 3.05156 23.5542 2.625 23.0006 2.625Z" fill="#2E3436"/>
</svg>
