<svg width="54" height="54" viewBox="0 0 54 54" fill="none" xmlns="http://www.w3.org/2000/svg">
<path d="M0.75 9.67848C0.930322 9.45346 1.09147 9.20939 1.2937 9.00628C3.84888 6.44114 6.41528 3.88723 8.96375 1.31551C9.35191 0.923806 9.75801 0.749181 10.3172 0.750003C19.9649 0.763699 29.6127 0.759727 39.2604 0.760001C40.3213 0.760001 40.6182 1.06036 40.6182 2.13399C40.6184 10.8965 40.6184 19.6591 40.6184 28.4216C40.6184 28.6048 40.6184 28.7881 40.6184 29.101C40.8021 28.8694 40.9271 28.7419 41.0175 28.5933C41.8405 27.2403 42.7117 25.9129 43.4633 24.5209C44.5248 22.5549 46.7714 21.3388 48.8721 21.705C51.1345 22.0995 52.8703 23.8634 53.2004 26.1039C53.5224 28.2887 52.2508 30.5076 50.161 31.5339C47.0576 33.058 44.3423 35.1431 41.79 37.4531C41.7664 37.4743 41.7557 37.5096 41.7029 37.6006C42.3507 38.2458 43.0112 38.9053 43.6736 39.5628C44.4937 40.377 45.0522 41.3259 45.2461 42.483C45.5147 44.0851 45.1066 45.4986 44.062 46.7172C43.552 47.3122 42.9812 47.8574 42.4136 48.3998C41.8903 48.8998 41.4343 48.8511 40.653 48.2323C40.6396 48.4071 40.62 48.5472 40.6196 48.6873C40.617 49.7634 40.5925 50.8403 40.6281 51.9153C40.6485 52.5311 40.4647 52.98 39.9005 53.2499C34.981 53.2499 30.0615 53.2499 25.1422 53.2499C24.9097 52.9922 24.5723 52.7715 24.4661 52.4693C24.2292 51.7957 24.7803 51.2017 25.5729 51.2013C29.672 51.1987 33.7712 51.2001 37.8703 51.2001C38.075 51.2001 38.2797 51.2001 38.5079 51.2001C38.5294 51.1126 38.5649 51.0349 38.5651 50.9573C38.5688 49.4367 38.5818 47.9159 38.5535 46.3959C38.5495 46.1808 38.3834 45.9268 38.2201 45.7628C34.3997 41.9252 30.5692 38.0976 26.7407 34.2682C25.8947 33.4219 25.8965 32.9918 26.7545 32.1332C27.165 31.7225 27.5672 31.3021 27.9954 30.9106C30.0289 29.0508 32.9698 29.0396 35.0013 30.9136C35.7782 31.6302 36.483 32.4249 37.2637 33.2285C37.6971 32.7449 38.1023 32.3347 38.4504 31.8805C38.5657 31.7301 38.5643 31.4666 38.5644 31.2549C38.5697 23.3617 38.5688 15.4684 38.5688 7.57518C38.5688 6.00684 38.5688 4.43836 38.5688 2.83989C29.3693 2.83989 20.209 2.83989 10.9989 2.83989C10.9989 3.043 10.9989 3.22626 10.9989 3.40937C10.9989 5.52788 10.9999 7.6464 10.9984 9.76491C10.9977 10.6582 10.6503 11.0099 9.76801 11.0106C7.65015 11.0121 5.53229 11.0111 3.41444 11.0111C3.2296 11.0111 3.04476 11.0111 2.83061 11.0111C2.83061 24.4167 2.83061 37.7827 2.83061 51.2002C3.04859 51.2002 3.24876 51.2002 3.4488 51.2002C7.66754 51.2002 11.8861 51.199 16.1049 51.2015C16.8978 51.2019 17.446 51.7938 17.2099 52.4706C17.1047 52.7724 16.7661 52.9926 16.5333 53.25C11.2722 53.25 6.0111 53.25 0.75 53.25C0.75 38.726 0.75 24.2022 0.75 9.67848ZM41.6958 46.1916C41.937 45.9468 42.1822 45.7098 42.4145 45.4605C43.5435 44.2488 43.5683 42.4291 42.4019 41.2485C39.4852 38.2963 36.543 35.3692 33.602 32.4411C33.0355 31.8772 32.3305 31.6184 31.5226 31.602C30.2414 31.5758 29.4119 32.3215 28.681 33.1704C33.0114 37.5031 37.3314 41.825 41.6958 46.1916ZM40.1867 36.0351C40.2372 36.0172 40.2565 36.0157 40.2679 36.0054C43.1127 33.4619 46.1382 31.1824 49.576 29.4778C50.6746 28.9331 51.3203 27.5449 51.1412 26.4291C50.9137 25.0111 49.9039 23.9887 48.4941 23.7489C47.2914 23.5443 45.9445 24.311 45.2996 25.5134C44.7607 26.518 44.2128 27.5222 43.5966 28.4801C42.1832 30.6779 40.5673 32.7239 38.7817 34.6466C39.2544 35.1138 39.7142 35.5682 40.1867 36.0351ZM4.36041 8.92657C5.91361 8.92657 7.4167 8.92657 8.90569 8.92657C8.90569 7.39288 8.90569 5.89439 8.90569 4.38316C7.38384 5.90425 5.89116 7.39644 4.36041 8.92657Z" fill="#2E3436"/>
<path d="M20.5303 53.2501C20.2934 52.9613 19.9553 52.7065 19.8436 52.3754C19.6802 51.8911 20.0548 51.3773 20.5366 51.2322C21.0082 51.09 21.5155 51.3038 21.7497 51.7434C21.9924 52.199 21.8687 52.7378 21.4434 53.0583C21.3493 53.1292 21.245 53.1866 21.1454 53.2501C20.9404 53.2501 20.7353 53.2501 20.5303 53.2501Z" fill="#2E3436"/>
<path d="M20.6616 19.8278C15.829 19.8278 10.9961 19.828 6.16346 19.8276C5.16998 19.8275 4.85137 19.5071 4.85096 18.5095C4.85041 17.2796 4.84767 16.0497 4.85205 14.8198C4.85465 14.0669 5.23474 13.6793 5.9804 13.6792C15.7824 13.6773 25.5845 13.6773 35.3865 13.6792C36.1359 13.6793 36.5149 14.0627 36.5178 14.8161C36.5226 16.0631 36.5202 17.31 36.5189 18.557C36.5179 19.4851 36.1798 19.8273 35.2622 19.8275C30.3953 19.8282 25.5284 19.8278 20.6616 19.8278ZM15.7371 17.7423C22.0017 17.7423 28.2221 17.7423 34.4276 17.7423C34.4276 17.0503 34.4276 16.3957 34.4276 15.7544C28.1768 15.7544 21.9684 15.7544 15.7371 15.7544C15.7371 16.4237 15.7371 17.0659 15.7371 17.7423ZM6.9376 15.7489C6.9376 16.4456 6.9376 17.0999 6.9376 17.7377C9.19922 17.7377 11.4232 17.7377 13.6366 17.7377C13.6366 17.0543 13.6366 16.4122 13.6366 15.7489C11.3968 15.7489 9.18498 15.7489 6.9376 15.7489Z" fill="#2E3436"/>
<path d="M19.8518 42.3834C20.8686 38.7854 23.9877 37.9201 26.078 38.3913C28.5011 38.9375 30.1377 41.118 30.0583 43.751C29.988 46.0776 28.0672 48.1652 25.6028 48.4994C23.1154 48.8366 20.5934 47.3189 19.8775 44.4323C18.1648 44.4323 16.4427 44.4364 14.7206 44.43C14.1578 44.4278 13.7451 44.078 13.6719 43.5758C13.599 43.076 13.8718 42.5914 14.3419 42.4406C14.5151 42.3852 14.7109 42.3861 14.8965 42.3857C16.5507 42.3819 18.2051 42.3834 19.8518 42.3834ZM22.1018 44.4325C22.5343 45.7859 23.9955 46.6788 25.328 46.4452C26.9216 46.1658 28.0354 44.8899 28.0108 43.3718C27.9856 41.8145 26.8185 40.5561 25.2078 40.3498C23.8993 40.1822 22.4505 41.1214 22.1136 42.3837C23.0409 42.3837 23.9596 42.3782 24.8782 42.3855C25.5401 42.3907 25.9655 42.8039 25.9614 43.4162C25.9573 44.0258 25.5306 44.4263 24.8611 44.431C23.9564 44.4373 23.0516 44.4325 22.1018 44.4325Z" fill="#2E3436"/>
<path d="M20.6566 23.9287C15.7728 23.9287 10.8889 23.9297 6.00519 23.9276C5.27131 23.9273 4.83029 23.5137 4.85124 22.8627C4.86808 22.3399 5.25679 21.9278 5.78009 21.8829C5.88183 21.8741 5.98492 21.8796 6.08734 21.8796C15.8207 21.8795 25.5543 21.8793 35.2877 21.8799C36.0171 21.8799 36.4494 22.1946 36.5139 22.7655C36.5857 23.4002 36.1586 23.9077 35.5129 23.9247C34.9157 23.9405 34.3176 23.9287 33.72 23.9287C29.3654 23.9287 25.011 23.9287 20.6566 23.9287Z" fill="#2E3436"/>
<path d="M20.6595 28.0291C15.7757 28.0291 10.8918 28.0299 6.00808 28.0282C5.27296 28.0279 4.83181 27.6165 4.85112 26.9662C4.86659 26.443 5.25448 26.0294 5.77696 25.9836C5.87869 25.9747 5.98179 25.9802 6.08421 25.9802C15.8176 25.98 25.5512 25.9799 35.2846 25.9805C36.0153 25.9805 36.4474 26.2931 36.5135 26.8632C36.5871 27.4973 36.1603 28.0047 35.5157 28.0257C35.0551 28.0408 34.5937 28.0293 34.1327 28.0293C29.6416 28.0293 25.1505 28.0291 20.6595 28.0291Z" fill="#2E3436"/>
<path d="M14.3837 32.1297C11.5666 32.1297 8.74966 32.1275 5.93256 32.1317C5.45184 32.1324 5.10639 31.9305 4.92539 31.4905C4.75301 31.0714 4.81887 30.654 5.17061 30.3742C5.37845 30.2089 5.69008 30.0933 5.95529 30.0925C11.5722 30.0767 17.1893 30.0795 22.8063 30.0821C23.4785 30.0824 23.9052 30.4819 23.9116 31.0904C23.9183 31.7219 23.4865 32.1275 22.7835 32.1283C19.9836 32.1316 17.1837 32.1297 14.3837 32.1297Z" fill="#2E3436"/>
<path d="M12.3693 34.1811C14.452 34.1811 16.5347 34.1799 18.6173 34.1818C19.3731 34.1825 19.8111 34.5612 19.8113 35.2048C19.8114 35.8491 19.3735 36.2294 18.6186 36.2297C14.4191 36.231 10.2197 36.2312 6.02027 36.2294C5.27804 36.2291 4.83825 35.8291 4.85085 35.1803C4.8629 34.5596 5.2983 34.1828 6.01918 34.182C8.1358 34.1796 10.2526 34.1811 12.3693 34.1811Z" fill="#2E3436"/>
<path d="M22.1416 8.95841C21.7836 8.95841 21.4247 8.97417 21.0678 8.95472C20.5209 8.92472 20.1259 8.49042 20.1219 7.94463C20.1179 7.39692 20.5073 6.93742 21.0494 6.91975C21.7988 6.89524 22.5502 6.89469 23.2994 6.92044C23.8399 6.93906 24.2255 7.4024 24.2185 7.95189C24.2115 8.49823 23.8163 8.92732 23.2667 8.95499C22.8926 8.97362 22.5168 8.95841 22.1416 8.95841Z" fill="#2E3436"/>
<path d="M28.335 6.91225C28.693 6.91252 29.0518 6.89869 29.409 6.91581C29.9614 6.94224 30.3585 7.36531 30.3682 7.91138C30.3784 8.48278 29.9781 8.93776 29.4054 8.95379C28.6899 8.97378 27.9731 8.97186 27.2574 8.95488C26.6774 8.94119 26.2708 8.50181 26.2715 7.93343C26.2722 7.36545 26.68 6.93704 27.261 6.91458C27.6185 6.90061 27.9769 6.91197 28.335 6.91225Z" fill="#2E3436"/>
<path d="M34.4363 8.95813C34.0783 8.95813 33.7193 8.97456 33.3625 8.95429C32.8165 8.92334 32.4231 8.48643 32.4209 7.9401C32.4187 7.3928 32.8093 6.93631 33.3526 6.91919C34.102 6.8955 34.8534 6.89495 35.6026 6.92042C36.1224 6.93823 36.5057 7.38143 36.5175 7.90462C36.53 8.45521 36.1496 8.9143 35.6123 8.95114C35.2221 8.97785 34.8285 8.95635 34.4363 8.95635C34.4363 8.95703 34.4363 8.95758 34.4363 8.95813Z" fill="#2E3436"/>
<path d="M22.8684 34.1828C23.4583 34.1733 23.9089 34.6119 23.9122 35.1985C23.9155 35.7875 23.4719 36.2328 22.884 36.2305C22.3181 36.2283 21.8793 35.8018 21.8647 35.2397C21.8493 34.6506 22.2848 34.1921 22.8684 34.1828Z" fill="#2E3436"/>
</svg>
