<svg width="48" height="48" viewBox="0 0 48 48" fill="none" xmlns="http://www.w3.org/2000/svg">
<path d="M27.7096 21.9117C28.6983 20.9772 30.0125 20.465 31.373 20.4842C32.7333 20.5032 34.0325 21.0523 34.9946 22.0143C35.9566 22.9761 36.5055 24.2756 36.5247 25.6359C36.5439 26.9963 36.0316 28.3104 35.097 29.2993L28.8009 35.5952C27.8178 36.5364 26.5062 37.0568 25.1451 37.0458C23.7842 37.0348 22.4812 36.4932 21.5133 35.5364C20.5455 34.5793 19.9892 33.2826 19.9627 31.9218C19.9363 30.5611 20.4417 29.2436 21.3715 28.2498L27.7096 21.9117Z" stroke="#2E3436" stroke-width="2.0001" stroke-linecap="round" stroke-linejoin="round"/>
<path d="M24.8563 24.7674L32.2436 32.1548" stroke="#2E3436" stroke-width="2.0001" stroke-linecap="round" stroke-linejoin="round"/>
<path d="M16.6037 22.8477C20.2073 22.8477 23.1285 19.9265 23.1285 16.323C23.1285 12.7194 20.2073 9.79816 16.6037 9.79816C13.0002 9.79816 10.0789 12.7194 10.0789 16.323C10.0789 19.9265 13.0002 22.8477 16.6037 22.8477Z" stroke="#2E3436" stroke-width="2.0001" stroke-linecap="round" stroke-linejoin="round"/>
<path d="M10.0789 16.3231H23.1285" stroke="#2E3436" stroke-width="2.0001" stroke-linecap="round" stroke-linejoin="round"/>
<path d="M22.3253 42.4185C33.4222 42.4185 42.418 33.4227 42.418 22.3256C42.418 11.2287 33.4222 2.23276 22.3253 2.23276C11.2282 2.23276 2.2323 11.2287 2.2323 22.3256C2.2323 33.4227 11.2282 42.4185 22.3253 42.4185Z" stroke="#2E3436" stroke-width="2.0001" stroke-linecap="round" stroke-linejoin="round"/>
<path d="M36.5252 36.5237L45.7679 45.7664" stroke="#2E3436" stroke-width="2.0001" stroke-linecap="round" stroke-linejoin="round"/>
</svg>
