<svg width="20" height="20" viewBox="0 0 20 20" fill="none" xmlns="http://www.w3.org/2000/svg">
<path d="M13.9996 10.35C14.1057 10.35 14.2074 10.3131 14.2825 10.2475C14.3575 10.1819 14.3996 10.0928 14.3996 10C14.3996 9.90718 14.3575 9.81815 14.2825 9.75251C14.2074 9.68688 14.1057 9.65 13.9996 9.65C13.8935 9.65 13.7918 9.68688 13.7168 9.75251C13.6418 9.81815 13.5996 9.90718 13.5996 10C13.5996 10.0928 13.6418 10.1819 13.7168 10.2475C13.7918 10.3131 13.8935 10.35 13.9996 10.35ZM9.99961 10.35C10.1057 10.35 10.2074 10.3131 10.2825 10.2475C10.3575 10.1819 10.3996 10.0928 10.3996 10C10.3996 9.90718 10.3575 9.81815 10.2825 9.75251C10.2074 9.68688 10.1057 9.65 9.99961 9.65C9.89352 9.65 9.79178 9.68688 9.71677 9.75251C9.64175 9.81815 9.59961 9.90718 9.59961 10C9.59961 10.0928 9.64175 10.1819 9.71677 10.2475C9.79178 10.3131 9.89352 10.35 9.99961 10.35ZM5.99961 10.35C6.1057 10.35 6.20744 10.3131 6.28245 10.2475C6.35747 10.1819 6.39961 10.0928 6.39961 10C6.39961 9.90718 6.35747 9.81815 6.28245 9.75251C6.20744 9.68688 6.1057 9.65 5.99961 9.65C5.89352 9.65 5.79178 9.68688 5.71677 9.75251C5.64175 9.81815 5.59961 9.90718 5.59961 10C5.59961 10.0928 5.64175 10.1819 5.71677 10.2475C5.79178 10.3131 5.89352 10.35 5.99961 10.35Z" fill="#C4C4C4" stroke="#C4C4C4" stroke-width="1.4" stroke-linecap="round" stroke-linejoin="round"/>
<path d="M10 17C14.4184 17 18 13.8661 18 10C18 6.1339 14.4184 3 10 3C5.5816 3 2 6.1339 2 10C2 11.2747 2.3896 12.471 3.0704 13.5L2.4 16.65L6 16.0634C7.21571 16.6786 8.59564 17.0017 10 17Z" stroke="#C4C4C4" stroke-width="1.4" stroke-linecap="round" stroke-linejoin="round"/>
</svg>
