<svg width="24" height="24" viewBox="0 0 24 24" fill="none" xmlns="http://www.w3.org/2000/svg">
<path d="M3.51472 20.4853C3.12419 20.0947 3.12419 19.4616 3.51472 19.0711L19.0711 3.51471C19.4616 3.12419 20.0948 3.12419 20.4853 3.51471C20.8758 3.90523 20.8758 4.5384 20.4853 4.92892L4.92893 20.4853C4.53841 20.8758 3.90524 20.8758 3.51472 20.4853Z" fill="#2E3436"/>
<path d="M3.51472 3.51471C3.90524 3.12419 4.53841 3.12419 4.92893 3.51471L20.4853 19.0711C20.8758 19.4616 20.8758 20.0947 20.4853 20.4853C20.0948 20.8758 19.4616 20.8758 19.0711 20.4853L3.51472 4.92892C3.12419 4.5384 3.12419 3.90523 3.51472 3.51471Z" fill="#2E3436"/>
</svg>
