<svg width="70" height="70" viewBox="0 0 70 70" fill="none" xmlns="http://www.w3.org/2000/svg">
<path d="M30.1 61.3338C30.1 53.8902 30.1 46.4465 30.1 39.0028C30.159 38.8502 30.2186 38.6977 30.2772 38.5448C30.628 37.6286 31.5696 36.6312 33.2461 36.6338C44.4533 36.6511 55.6604 36.6428 66.8676 36.6433C66.9844 36.6433 67.1012 36.649 67.2179 36.6548C68.782 36.7307 69.9969 37.9867 69.9976 39.5504C70.001 46.6286 69.9985 53.7069 70 60.7851C70.0001 61.4334 69.7995 62.012 69.4116 62.5235C68.7429 63.4054 67.831 63.7015 66.7512 63.7005C55.622 63.6897 44.4927 63.6939 33.3635 63.6934C33.1947 63.6934 33.0259 63.688 32.8574 63.6801C31.9585 63.6378 31.2252 63.2523 30.7067 62.5281C30.4499 62.1692 30.2988 61.7343 30.1 61.3338ZM37.2752 44.775C36.4446 44.775 35.6138 44.7724 34.7831 44.7758C34.1437 44.7785 33.8353 45.0908 33.8335 45.7402C33.8303 46.9107 33.8299 48.0811 33.8338 49.2516C33.8359 49.8593 34.1365 50.1827 34.7298 50.1857C36.4042 50.194 38.0785 50.1935 39.7529 50.1866C40.3296 50.1842 40.6599 49.883 40.6696 49.3047C40.6898 48.0956 40.6892 46.8856 40.6699 45.6766C40.6604 45.0808 40.3198 44.7791 39.7283 44.7761C38.9108 44.7719 38.093 44.775 37.2752 44.775ZM41.7236 59.7838C43.9813 59.7838 46.239 59.7839 48.4967 59.7837C49.2478 59.7836 49.6545 59.4843 49.6491 58.9367C49.6436 58.3935 49.2381 58.1032 48.4811 58.1032C43.9787 58.103 39.4762 58.103 34.9738 58.1037C34.8313 58.1037 34.6873 58.1015 34.5464 58.1193C34.0407 58.1832 33.715 58.6929 33.8602 59.183C33.9726 59.5627 34.29 59.7819 34.7558 59.7825C37.0784 59.7849 39.401 59.7836 41.7236 59.7838ZM60.7583 43.3837C62.2631 43.3837 63.7677 43.385 65.2725 43.3831C65.8755 43.3824 66.2443 43.0807 66.2643 42.5808C66.2855 42.048 65.9331 41.6908 65.3161 41.689C62.2807 41.6799 59.2454 41.6819 56.21 41.6915C56.0121 41.6921 55.7941 41.7515 55.6211 41.8479C55.3057 42.0236 55.1771 42.457 55.2893 42.8077C55.3992 43.1509 55.7188 43.3803 56.1274 43.3814C57.6709 43.3858 59.2146 43.3832 60.7583 43.3837ZM59.7516 55.9575C60.387 55.9575 61.0224 55.9625 61.6577 55.9559C62.2036 55.9503 62.5794 55.5995 62.5779 55.1128C62.5764 54.6478 62.2161 54.2808 61.6892 54.2749C60.3928 54.2601 59.096 54.2597 57.7996 54.2756C57.2768 54.282 56.9122 54.6589 56.9159 55.1201C56.9199 55.601 57.3024 55.951 57.8456 55.9561C58.4809 55.9621 59.1163 55.9575 59.7516 55.9575ZM52.0249 55.9573C52.6732 55.9573 53.3215 55.9624 53.9698 55.9556C54.4895 55.9502 54.8619 55.61 54.88 55.1415C54.8979 54.6777 54.5396 54.2849 54.0209 54.2778C52.7117 54.2598 51.4019 54.2598 50.0928 54.2762C49.5619 54.2829 49.2204 54.6503 49.2285 55.1293C49.2365 55.6135 49.5896 55.9488 50.1191 55.9554C50.7543 55.9632 51.3896 55.9573 52.0249 55.9573ZM44.347 55.9575C44.9822 55.9575 45.6175 55.962 46.2526 55.9561C46.7891 55.9512 47.1492 55.6326 47.1701 55.1589C47.1925 54.6537 46.8567 54.2832 46.3005 54.2758C45.0045 54.2586 43.7079 54.259 42.4118 54.2749C41.8476 54.2818 41.5255 54.6325 41.5404 55.1496C41.5544 55.6387 41.8963 55.9507 42.4415 55.956C43.0767 55.9621 43.7119 55.9574 44.347 55.9575ZM36.6388 55.9575C37.274 55.9575 37.9092 55.9616 38.5443 55.9562C39.0968 55.9517 39.4416 55.6504 39.4628 55.1673C39.4856 54.6467 39.1677 54.2843 38.6091 54.2768C37.3002 54.2593 35.9907 54.2596 34.6819 54.278C34.1455 54.2855 33.8232 54.6465 33.835 55.1414C33.8464 55.621 34.2015 55.9498 34.7333 55.9555C35.3685 55.9624 36.0037 55.9572 36.6388 55.9575Z" fill="#F5CA35"/>
<path d="M1.32313 18.3124C4.85559 18.3307 8.6473 18.3211 12.1799 18.3211C12.4107 18.3211 12.6414 18.3211 12.9355 18.3211C12.9486 18.0649 12.9679 17.8587 12.9681 17.6523C12.9702 15.1259 12.9797 12.5995 12.9616 10.0732C12.9577 9.52206 13.1624 9.23806 13.6792 9.03037C20.9756 6.09742 28.2662 3.14959 35.55 0.185752C36.1753 -0.0686698 36.7163 -0.0587021 37.3366 0.197027C44.6614 3.21642 51.9939 6.21736 59.3267 9.21682C59.7561 9.39248 59.9662 9.65099 59.9657 10.1404C59.9564 18.777 59.9546 27.4136 59.9667 36.0502C59.9676 36.7962 59.5508 37.1197 58.9476 37.3702C52.0623 40.2309 45.1659 43.0653 38.3093 45.9937C36.9711 46.5652 35.8737 46.5895 34.5177 46.0079C27.6474 43.0616 20.732 40.2215 13.8247 37.3625C13.1078 37.0658 12.8025 36.6144 12.829 35.841C12.8668 34.7456 12.8385 33.648 12.8385 32.5512C12.8385 32.3416 12.8385 32.1319 12.8385 31.877C12.5515 31.877 12.3398 31.877 12.1281 31.877C9.25911 31.877 6.39009 31.8785 3.52106 31.876C2.70048 31.8754 2.23751 31.5041 2.22513 30.8525C2.2121 30.1719 2.68631 29.7709 3.53083 29.7699C6.39986 29.7663 9.26888 29.7686 12.1379 29.7684C12.3483 29.7684 12.5585 29.7684 12.8015 29.7684C12.8015 28.569 12.8015 27.4245 12.8015 26.2307C11.4996 26.2307 10.2341 26.2426 8.96876 26.2268C8.02669 26.2149 7.49125 25.4601 7.87394 24.7065C8.09134 24.2785 8.46345 24.1171 8.93619 24.1205C10.2036 24.1298 11.4712 24.1236 12.7885 24.1236C12.7885 22.9528 12.7885 21.8118 12.7885 20.5838C12.5633 20.5838 12.3382 20.5838 12.1132 20.5838C8.69762 20.5838 4.63135 20.5921 1.21597 20.5921C0.637217 20.5921 0 20.2903 0 19.4187C0.000162846 18.5659 0.817 18.3124 1.32313 18.3124ZM37.4747 44.0319C37.7243 43.9419 37.8706 43.8959 38.0114 43.8371C44.4976 41.1332 50.9815 38.4237 57.4735 35.7339C57.8871 35.5624 57.9462 35.3204 57.9444 34.9327C57.912 27.3739 57.8907 19.8151 57.8656 12.2562C57.8651 12.0883 57.8477 11.9204 57.8357 11.7091C57.609 11.7909 57.4258 11.8483 57.2494 11.922C50.8382 14.6035 44.4303 17.2928 38.0114 19.9553C37.5628 20.1414 37.4646 20.3686 37.4654 20.814C37.4784 28.3337 37.4747 35.8535 37.4747 43.3732C37.4747 43.566 37.4747 43.7587 37.4747 44.0319ZM35.3331 44.0267C35.345 43.7977 35.36 43.6451 35.36 43.4927C35.3611 35.894 35.3572 28.2953 35.3713 20.6967C35.3722 20.2873 35.2233 20.1315 34.8691 19.9844C28.4326 17.3117 22.0023 14.6241 15.5701 11.9411C15.3963 11.8687 15.2152 11.8143 14.9972 11.7373C14.9972 14.0075 14.9972 16.2088 14.9972 18.4752C15.6937 18.4752 16.3533 18.4554 17.0114 18.4806C17.7042 18.507 18.1276 19.036 18.0274 19.6971C17.9468 20.2297 17.5043 20.5643 16.8197 20.5807C16.2203 20.5949 15.6204 20.5836 15.0011 20.5836C15.0011 21.7884 15.0011 22.9288 15.0011 24.1164C15.2535 24.1164 15.4649 24.1164 15.6764 24.1164C18.682 24.1167 21.6877 24.113 24.6934 24.1202C25.3946 24.1218 25.8672 24.5612 25.8634 25.164C25.8598 25.7345 25.4013 26.1722 24.7443 26.2242C24.5891 26.2364 24.4322 26.2284 24.2761 26.2284C21.3876 26.2286 18.499 26.2286 15.6104 26.2286C15.4043 26.2286 15.1981 26.2286 14.988 26.2286C14.988 27.4453 14.988 28.5741 14.988 29.7395C15.2048 29.749 15.3953 29.7643 15.5859 29.7647C16.7569 29.767 17.9279 29.7591 19.0989 29.7686C19.8205 29.7745 20.2605 30.1716 20.2709 30.794C20.2819 31.4448 19.8361 31.854 19.0872 31.8729C18.7946 31.8803 18.5018 31.8744 18.209 31.8744C17.1418 31.8744 16.0746 31.8744 14.9586 31.8744C14.9586 32.9596 14.9796 33.9746 14.9485 34.9882C14.9356 35.4105 15.0849 35.5995 15.4691 35.7592C21.9048 38.4336 28.3336 41.1246 34.7644 43.811C34.9374 43.8832 35.1149 43.9443 35.3331 44.0267ZM44.9211 5.57844C44.6099 5.44592 44.4377 5.36896 44.2626 5.29869C41.8069 4.31156 39.3547 3.31528 36.8894 2.35283C36.6217 2.24825 36.2413 2.24776 35.9747 2.3543C30.1184 4.69181 24.2709 7.05138 18.4217 9.4067C17.881 9.62452 17.3405 9.84299 16.7562 10.0786C16.8684 10.1615 16.9103 10.2069 16.9619 10.2285C19.7094 11.3769 22.4552 12.5302 25.2119 13.6564C25.4255 13.7436 25.7453 13.7051 25.9688 13.6116C28.7699 12.439 31.5616 11.2442 34.357 10.0577C37.832 8.58281 41.3081 7.1102 44.9211 5.57844ZM56.1158 10.1155C55.9509 10.0379 55.8706 9.99528 55.7867 9.96146C53.2084 8.91861 50.633 7.86807 48.0453 6.84875C47.8126 6.75708 47.4695 6.79434 47.23 6.89582C41.1029 9.48987 34.9826 12.1003 28.8619 14.7094C28.7116 14.7734 28.5688 14.8554 28.3841 14.9484C28.4799 15.0201 28.518 15.0621 28.5654 15.0821C31.0932 16.1468 33.6188 17.2176 36.1564 18.2583C36.368 18.3451 36.6889 18.2899 36.9153 18.1954C43.1261 15.6007 49.3312 12.9925 55.5369 10.3853C55.7092 10.3129 55.8763 10.2276 56.1158 10.1155Z" fill="#2E3436"/>
</svg>
