<svg width="20" height="20" viewBox="0 0 20 20" fill="none" xmlns="http://www.w3.org/2000/svg">
<g clip-path="url(#clip0_44_20517)">
<path d="M11 3.22222C11 2.66994 11.4477 2.22222 12 2.22222H19C19.5523 2.22222 20 2.66994 20 3.22222V3.44444C20 3.99673 19.5523 4.44444 19 4.44444H12C11.4477 4.44444 11 3.99673 11 3.44444V3.22222ZM0 3.44444C0 3.99673 0.447715 4.44444 1 4.44444H7V5.66667C7 6.21895 7.44772 6.66667 8 6.66667C8.55228 6.66667 9 6.21895 9 5.66667V0.999999C9 0.447714 8.55228 0 8 0C7.44772 0 7 0.447715 7 1V2.22222H1C0.447715 2.22222 0 2.66994 0 3.22222V3.44444ZM7 16.5556C7 16.0033 7.44771 15.5556 8 15.5556H19C19.5523 15.5556 20 16.0033 20 16.5556V16.7778C20 17.3301 19.5523 17.7778 19 17.7778H8C7.44771 17.7778 7 17.3301 7 16.7778V16.5556ZM17 9.88889C17 9.3366 17.4477 8.88889 18 8.88889H19C19.5523 8.88889 20 9.3366 20 9.88889V10.1111C20 10.6634 19.5523 11.1111 19 11.1111H18C17.4477 11.1111 17 10.6634 17 10.1111V9.88889ZM14 13.3333C14.5523 13.3333 15 12.8856 15 12.3333V7.68C15 7.12772 14.5523 6.68 14 6.68C13.4477 6.68 13 7.12772 13 7.68V8.88889H1C0.447715 8.88889 0 9.3366 0 9.88889V10.1111C0 10.6634 0.447715 11.1111 1 11.1111H13V12.3333C13 12.8856 13.4477 13.3333 14 13.3333ZM4 20C4.55228 20 5 19.5523 5 19V14.3333C5 13.781 4.55228 13.3333 4 13.3333C3.44772 13.3333 3 13.781 3 14.3333V15.5556H1C0.447715 15.5556 0 16.0033 0 16.5556V16.7778C0 17.3301 0.447715 17.7778 1 17.7778H3V19C3 19.5523 3.44772 20 4 20Z" fill="#C4C4C4"/>
</g>
<defs>
<clipPath id="clip0_44_20517">
<rect width="20" height="20" fill="white"/>
</clipPath>
</defs>
</svg>
