<svg width="20" height="20" viewBox="0 0 20 20" fill="none" xmlns="http://www.w3.org/2000/svg">
<path d="M4.66667 11.3333H8.66667V12.6667H4.66667V11.3333ZM4.66667 14H11.3333V15.3333H4.66667V14Z" fill="#C4C4C4"/>
<path d="M16.6667 2H3.33333C2.97987 2.00053 2.64104 2.14117 2.39111 2.39111C2.14117 2.64104 2.00053 2.97987 2 3.33333V16.6667C2.00053 17.0201 2.14117 17.359 2.39111 17.6089C2.64104 17.8588 2.97987 17.9995 3.33333 18H16.6667C17.0201 17.9995 17.359 17.8588 17.6089 17.6089C17.8588 17.359 17.9995 17.0201 18 16.6667V3.33333C17.9995 2.97987 17.8588 2.64104 17.6089 2.39111C17.359 2.14117 17.0201 2.00053 16.6667 2ZM11.3333 3.33333V6H8.66667V3.33333H11.3333ZM3.33333 16.6667V3.33333H7.33333V7.33333H12.6667V3.33333H16.6667L16.6673 16.6667H3.33333Z" fill="#C4C4C4"/>
</svg>
