<svg width="16" height="16" viewBox="0 0 16 16" fill="none" xmlns="http://www.w3.org/2000/svg">
<path d="M13.5609 5.14847C13.5698 5.27283 13.5698 5.39722 13.5698 5.52158C13.5698 9.3147 10.6828 13.6853 5.40612 13.6853C3.78048 13.6853 2.27034 13.2144 1.00003 12.3972C1.231 12.4238 1.45306 12.4327 1.69292 12.4327C3.03427 12.4327 4.26906 11.9797 5.2551 11.2069C3.99368 11.1802 2.93657 10.3541 2.57235 9.217C2.75003 9.24363 2.92768 9.26141 3.11425 9.26141C3.37185 9.26141 3.62949 9.22586 3.86932 9.16371C2.5546 8.89719 1.56853 7.74238 1.56853 6.34771V6.31219C1.9505 6.52539 2.3947 6.65864 2.86548 6.67638C2.09263 6.16115 1.58631 5.28172 1.58631 4.28679C1.58631 3.7538 1.72841 3.26522 1.97716 2.83883C3.3896 4.57994 5.51271 5.71697 7.89339 5.84136C7.84898 5.62816 7.82232 5.4061 7.82232 5.18402C7.82232 3.60278 9.10152 2.31473 10.6916 2.31473C11.5177 2.31473 12.2639 2.66117 12.7881 3.22082C13.4365 3.09646 14.0583 2.8566 14.6091 2.52793C14.3959 3.19418 13.9429 3.75383 13.3477 4.10913C13.9251 4.04698 14.4848 3.88705 15 3.66499C14.6092 4.23349 14.1206 4.73982 13.5609 5.14847Z" fill="#C4C4C4"/>
</svg>
