<svg width="194" height="38" viewBox="0 0 194 38" fill="none" xmlns="http://www.w3.org/2000/svg">
<g clip-path="url(#clip0_16_12187)">
<path fill-rule="evenodd" clip-rule="evenodd" d="M40.1805 18.808C40.1646 18.8265 40.1477 18.8446 40.13 18.8617L24.4255 34.5504V14.4628L19.7452 14.4679L14.6058 21.8621H19.2818V33.9048L4.50508 19.1822C4.50088 19.178 4.49667 19.1738 4.49293 19.1697C2.43781 17.1293 1.35156 14.5891 1.35156 11.8236C1.35156 5.95136 6.16321 2.09912 12.077 2.09912C16.8826 2.09912 20.4705 5.88107 22.1525 8.08373C23.6151 5.83713 26.8617 2.09912 32.2691 2.09912C38.1833 2.09912 42.995 5.95136 42.995 11.8236C42.9945 14.2552 41.9952 16.7358 40.1805 18.808Z" fill="#F5CA35"/>
<path fill-rule="evenodd" clip-rule="evenodd" d="M41.0365 19.0583C41.0196 19.0777 41.0019 19.0967 40.9831 19.1147L22.8457 37.1573C22.625 37.377 22.3253 37.5 22.0125 37.5C21.6996 37.5 21.3994 37.3765 21.1792 37.1569L3.33308 19.4518C3.32887 19.4477 3.3242 19.4435 3.31999 19.4389C1.14797 17.2912 0 14.6178 0 11.7076C0 5.5278 5.08519 0.5 11.3352 0.5C16.4138 0.5 20.2056 4.48034 21.9835 6.79816C23.5294 4.43409 26.9606 0.5 32.6752 0.5C38.9257 0.5 44.0109 5.5278 44.0109 11.7076C44.0109 14.2668 42.9546 16.8773 41.0365 19.0583ZM22.0125 34.6906L23.354 33.3559L23.3433 15.7083L20.2206 15.6842C19.6768 16.5134 18.5386 18.2439 17.0554 20.4706L19.4972 20.4729C20.1392 20.4734 20.6611 20.9844 20.669 21.6198L20.6732 33.3624L22.0125 34.6906ZM32.6752 2.82337C26.2288 2.82337 23.2797 9.19691 23.1576 9.4679C22.9781 9.86608 22.5881 10.132 22.1476 10.156C21.709 10.1805 21.2909 9.95903 21.0684 9.58259C21.0291 9.516 16.9909 2.82337 11.3352 2.82337C6.38046 2.82337 2.34971 6.80879 2.34971 11.7076C2.34971 14.018 3.23301 16.0648 4.97531 17.7902L18.3156 31.0238L18.3347 22.7967L14.8712 22.794C14.4391 22.7935 14.0421 22.5581 13.8387 22.1812C13.6349 21.8043 13.6564 21.347 13.8953 20.9899C16.6285 16.9079 18.5812 13.9172 18.6003 13.8876C18.8183 13.5537 19.1947 13.3521 19.5968 13.3553L24.5272 13.3932C25.1711 13.3983 25.6906 13.9158 25.6911 14.5535L25.7014 31.0219L39.2886 17.5058C40.8186 15.754 41.6612 13.6961 41.6612 11.708C41.6612 6.80879 37.63 2.82337 32.6752 2.82337Z" fill="#2E3436"/>
<path d="M51.3252 5.6416V11.653H56.4899V33.1451H64.3564V5.6416H51.3252Z" fill="#2E3436"/>
<path d="M68.8223 24.0257V26.9188C68.8223 30.7244 73.0517 32.737 77.6305 32.737C82.0508 32.737 86.9157 30.9445 86.9157 25.4094C86.9157 21.1322 83.3858 19.7485 79.8245 18.585C77.9485 17.9246 76.2946 17.39 76.2946 16.2265C76.2946 15.4717 77.0577 15.2202 78.0434 15.2202C79.2835 15.2202 80.1102 15.5661 80.1102 16.2893V17.4843H86.1839V13.9618C86.1839 10.8481 82.1134 9.37012 78.0434 9.37012C73.8457 9.37012 69.3941 10.8167 69.3941 16.226C69.3941 20.346 72.2241 21.7297 75.3725 22.9875C77.5665 23.8366 80.0153 24.3083 80.0153 25.6291C80.0153 26.3838 79.125 26.8869 77.6305 26.8869C76.1361 26.8869 74.9278 26.4152 74.9278 25.4404V24.0253H68.8223V24.0257Z" fill="#2E3436"/>
<path d="M88.2422 32.3592H98.5454V27.5159H96.7647L97.2099 25.4404H102.075L102.52 27.5159H100.74V32.3592H111.075V27.5159H109.326L103.57 9.74707H95.7159L89.9602 27.5159H88.2431V32.3592H88.2422ZM98.2269 20.9745L98.9901 17.8613C99.2126 17.0122 99.3398 16.3204 99.4352 15.7229L99.5624 14.8424H99.7214C99.7532 15.1254 99.8168 15.4084 99.8804 15.7229C99.9758 16.2575 100.071 17.0122 100.294 17.8613L101.025 20.9745H98.2269Z" fill="#2E3436"/>
<path d="M112.937 32.3597H131.476V23.9315H125.752V27.1081H122.222V14.9997H124.639V9.74805H112.937V15.0001H115.353V27.5169H112.937V32.3597H112.937Z" fill="#2E3436"/>
<path d="M133.564 32.3597H152.008V25.095H146.284V27.1076H142.85V23.6166H148.892V18.3335H142.85V15.0001H145.966V17.0756H151.69V9.74805H133.564V14.5913H135.981V27.5169H133.564V32.3597Z" fill="#2E3436"/>
<path d="M169.71 25.925H175.717L172.212 20.833C173.229 20.3141 174.008 19.6153 174.548 18.7348C175.089 17.8548 175.359 16.8253 175.359 15.6466C175.359 14.3891 175.049 13.289 174.429 12.346C173.81 11.4031 172.927 10.6803 171.783 10.1771C170.639 9.67443 169.296 9.42285 167.755 9.42285H159.722V25.925H165.347V21.7759H166.873L169.71 25.925ZM169.686 15.6466C169.686 16.2593 169.495 16.7352 169.114 17.0728C168.732 17.4108 168.16 17.5796 167.397 17.5796H165.347V13.7135H167.397C168.16 13.7135 168.732 13.8828 169.114 14.2203C169.495 14.5584 169.686 15.0338 169.686 15.6466Z" fill="#F5CA35"/>
<path d="M194 25.925L187.85 17.3909L193.642 9.42285H187.588L184.823 13.572L181.986 9.42285H175.669L181.486 17.6032L175.455 25.925H181.867L184.68 21.5165L187.564 25.925H194Z" fill="#F5CA35"/>
</g>
<defs>
<clipPath id="clip0_16_12187">
<rect width="194" height="37" fill="white" transform="translate(0 0.5)"/>
</clipPath>
</defs>
</svg>
