<svg width="194" height="37" viewBox="0 0 194 37" fill="none" xmlns="http://www.w3.org/2000/svg">
<g clip-path="url(#clip0_67_1491)">
<path fill-rule="evenodd" clip-rule="evenodd" d="M41.0365 18.5583C41.0196 18.5777 41.0019 18.5967 40.9831 18.6147L22.8457 36.6573C22.625 36.877 22.3253 37 22.0125 37C21.6996 37 21.3994 36.8765 21.1792 36.6569L3.33308 18.9518C3.32887 18.9477 3.3242 18.9435 3.31999 18.9389C1.14797 16.7912 0 14.1178 0 11.2076C0 5.0278 5.08519 0 11.3352 0C16.4138 0 20.2056 3.98034 21.9835 6.29816C23.5294 3.93409 26.9606 0 32.6752 0C38.9257 0 44.0109 5.0278 44.0109 11.2076C44.0109 13.7668 42.9546 16.3773 41.0365 18.5583ZM22.0125 34.1906L23.354 32.8559L23.3433 15.2083L20.2206 15.1842C19.6768 16.0134 18.5386 17.7439 17.0554 19.9706L19.4972 19.9729C20.1392 19.9734 20.6611 20.4844 20.669 21.1198L20.6732 32.8624L22.0125 34.1906ZM32.6752 2.32337C26.2288 2.32337 23.2797 8.69691 23.1576 8.9679C22.9781 9.36608 22.5881 9.63199 22.1476 9.65603C21.709 9.68054 21.2909 9.45903 21.0684 9.08259C21.0291 9.016 16.9909 2.32337 11.3352 2.32337C6.38046 2.32337 2.34971 6.30879 2.34971 11.2076C2.34971 13.518 3.23301 15.5648 4.97531 17.2902L18.3156 30.5238L18.3347 22.2967L14.8712 22.294C14.4391 22.2935 14.0421 22.0581 13.8387 21.6812C13.6349 21.3043 13.6564 20.847 13.8953 20.4899C16.6285 16.4079 18.5812 13.4172 18.6003 13.3876C18.8183 13.0537 19.1947 12.8521 19.5968 12.8553L24.5272 12.8932C25.1711 12.8983 25.6906 13.4158 25.6911 14.0535L25.7014 30.5219L39.2886 17.0058C40.8186 15.254 41.6612 13.1961 41.6612 11.208C41.6612 6.30879 37.63 2.32337 32.6752 2.32337Z" fill="white"/>
<path d="M51.3252 5.1416V11.153H56.4899V32.6451H64.3564V5.1416H51.3252Z" fill="white"/>
<path d="M68.8223 23.5257V26.4188C68.8223 30.2244 73.0517 32.237 77.6305 32.237C82.0508 32.237 86.9157 30.4445 86.9157 24.9094C86.9157 20.6322 83.3858 19.2485 79.8245 18.085C77.9485 17.4246 76.2946 16.89 76.2946 15.7265C76.2946 14.9717 77.0577 14.7202 78.0434 14.7202C79.2835 14.7202 80.1102 15.0661 80.1102 15.7893V16.9843H86.1839V13.4618C86.1839 10.3481 82.1134 8.87012 78.0434 8.87012C73.8457 8.87012 69.3941 10.3167 69.3941 15.726C69.3941 19.846 72.2241 21.2297 75.3725 22.4875C77.5665 23.3366 80.0153 23.8083 80.0153 25.1291C80.0153 25.8838 79.125 26.3869 77.6305 26.3869C76.1361 26.3869 74.9278 25.9152 74.9278 24.9404V23.5253H68.8223V23.5257Z" fill="white"/>
<path d="M88.2422 31.8592H98.5454V27.0159H96.7647L97.2099 24.9404H102.075L102.52 27.0159H100.74V31.8592H111.075V27.0159H109.326L103.57 9.24707H95.7159L89.9602 27.0159H88.2431V31.8592H88.2422ZM98.2269 20.4745L98.9901 17.3613C99.2126 16.5122 99.3398 15.8204 99.4352 15.2229L99.5624 14.3424H99.7214C99.7532 14.6254 99.8168 14.9084 99.8804 15.2229C99.9758 15.7575 100.071 16.5122 100.294 17.3613L101.025 20.4745H98.2269Z" fill="white"/>
<path d="M112.937 31.8597H131.476V23.4315H125.752V26.6081H122.222V14.4997H124.639V9.24805H112.937V14.5001H115.353V27.0169H112.937V31.8597H112.937Z" fill="white"/>
<path d="M133.564 31.8597H152.008V24.595H146.284V26.6076H142.85V23.1166H148.892V17.8335H142.85V14.5001H145.966V16.5756H151.69V9.24805H133.564V14.0913H135.981V27.0169H133.564V31.8597Z" fill="white"/>
<path d="M169.71 25.425H175.717L172.212 20.333C173.229 19.8141 174.008 19.1153 174.548 18.2348C175.089 17.3548 175.359 16.3253 175.359 15.1466C175.359 13.8891 175.049 12.789 174.429 11.846C173.81 10.9031 172.927 10.1803 171.783 9.67711C170.639 9.17443 169.296 8.92285 167.755 8.92285H159.722V25.425H165.347V21.2759H166.873L169.71 25.425ZM169.686 15.1466C169.686 15.7593 169.495 16.2352 169.114 16.5728C168.732 16.9108 168.16 17.0796 167.397 17.0796H165.347V13.2135H167.397C168.16 13.2135 168.732 13.3828 169.114 13.7203C169.495 14.0584 169.686 14.5338 169.686 15.1466Z" fill="white"/>
<path d="M194 25.425L187.85 16.8909L193.642 8.92285H187.588L184.823 13.072L181.986 8.92285H175.669L181.486 17.1032L175.455 25.425H181.867L184.68 21.0165L187.564 25.425H194Z" fill="white"/>
</g>
<defs>
<clipPath id="clip0_67_1491">
<rect width="194" height="37" fill="white"/>
</clipPath>
</defs>
</svg>
