<svg width="20" height="20" viewBox="0 0 20 20" fill="none" xmlns="http://www.w3.org/2000/svg">
<path d="M15.8333 18H4.16667C3.85725 18 3.5605 17.8796 3.34171 17.6653C3.12292 17.4509 3 17.1602 3 16.8571V3.14286C3 2.83975 3.12292 2.54906 3.34171 2.33474C3.5605 2.12041 3.85725 2 4.16667 2H15.8333C16.1428 2 16.4395 2.12041 16.6583 2.33474C16.8771 2.54906 17 2.83975 17 3.14286V16.8571C17 17.1602 16.8771 17.4509 16.6583 17.6653C16.4395 17.8796 16.1428 18 15.8333 18ZM4.16667 3.14286V16.8571H15.8333V3.14286H4.16667Z" fill="#C4C4C4"/>
<path d="M5.91667 11.1429H12.3333V12.2857H5.91667V11.1429ZM5.91667 14H10V15.1429H5.91667V14Z" fill="#C4C4C4"/>
</svg>
