<svg width="70" height="70" viewBox="0 0 70 70" fill="none" xmlns="http://www.w3.org/2000/svg">
<g clip-path="url(#clip0_44_20892)">
<path d="M70 55.6388C69.3903 56.6338 68.9473 56.7958 67.8169 56.4314C67.0832 56.1949 66.3502 55.956 65.6181 55.7145C64.7823 55.439 64.3772 54.7107 64.6318 53.9491C64.8875 53.1846 65.6388 52.8351 66.4748 53.1012C67.1712 53.3229 67.8563 53.5844 68.561 53.7745C69.1938 53.9452 69.7058 54.2341 70 54.8393C70 55.1058 70 55.3723 70 55.6388Z" fill="#F5CA35"/>
<path d="M29 54.8394C29.2919 54.2307 29.8056 53.9472 30.4399 53.7781C31.145 53.5901 31.829 53.3239 32.5251 53.1014C33.3596 52.8346 34.1129 53.1857 34.3679 53.9494C34.6212 54.7083 34.2237 55.4293 33.3803 55.7148C32.6503 55.9619 31.9157 56.1953 31.1821 56.4315C30.0511 56.7959 29.605 56.6327 29 55.6388C29 55.3723 29 55.1058 29 54.8394Z" fill="#F5CA35"/>
<path d="M64.8859 45.1916C64.8973 46.1433 64.5001 46.9086 63.8272 47.5596C62.3421 48.9967 60.8713 50.4489 59.3771 51.8767C59.1172 52.1251 59.0411 52.3512 59.1039 52.701C59.4723 54.7541 59.8165 56.8116 60.1717 58.8672C60.3968 60.1694 59.9961 61.2488 58.9446 62.0354C57.8921 62.8228 56.7291 62.9113 55.5566 62.3101C53.6849 61.3502 51.824 60.369 49.9708 59.3741C49.6286 59.1903 49.374 59.1908 49.0307 59.3758C47.2264 60.3481 45.3975 61.2749 43.5941 62.2487C41.434 63.4151 39.1245 62.0501 38.8328 60.0582C38.7357 59.3947 38.87 58.6838 38.9768 58.0069C39.2705 56.1436 39.6108 54.2878 39.9134 52.4258C39.9344 52.2964 39.8326 52.1059 39.7288 52.0037C38.1985 50.4981 36.6528 49.0085 35.1221 47.5034C33.6916 46.0969 33.7925 43.8861 35.3225 42.6561C36.0027 42.1094 36.8214 42.0097 37.6418 41.8945C39.5405 41.628 41.4389 41.359 43.3338 41.0676C43.4892 41.0437 43.6733 40.8705 43.7494 40.7192C44.7172 38.7953 45.6572 36.8575 46.6254 34.9338C47.5873 33.0226 50.0141 32.5219 51.595 33.9267C51.9518 34.2437 52.2327 34.6801 52.4522 35.1106C53.4009 36.9702 54.3093 38.8502 55.2481 40.7148C55.3247 40.8668 55.507 41.043 55.6618 41.0666C57.7409 41.3839 59.8215 41.6924 61.9063 41.9692C63.6832 42.2051 64.889 43.4848 64.8859 45.1916Z" fill="#F5CA35"/>
<path d="M40.0932 34.6168C40.0495 35.2074 39.7244 35.6862 39.1872 35.901C38.6674 36.1088 38.0364 36.0048 37.6889 35.56C37.0499 34.742 36.4314 33.905 35.856 33.0417C35.4685 32.4602 35.6768 31.6837 36.246 31.2703C36.7957 30.871 37.5922 30.9036 38.0233 31.4395C38.6819 32.258 39.2821 33.1242 39.8843 33.986C40.006 34.1599 40.0262 34.4046 40.0932 34.6168Z" fill="#F5CA35"/>
<path d="M62.0906 31.0192C63.0198 31.024 63.6995 32.1812 63.1242 33.0724C62.5763 33.9214 61.9672 34.7341 61.3407 35.5281C60.8886 36.1014 60.0399 36.1521 59.4682 35.7094C58.9127 35.2793 58.762 34.4798 59.1714 33.8856C59.7227 33.0853 60.3022 32.3039 60.8859 31.5266C61.148 31.1776 61.5198 31.0078 62.0906 31.0192Z" fill="#F5CA35"/>
<path d="M50.863 67.3085C50.8632 67.7743 50.8723 68.2401 50.8612 68.7056C50.843 69.464 50.2552 70.0279 49.4987 70.0276C48.7445 70.0272 48.1492 69.4603 48.1395 68.7031C48.1272 67.7452 48.1265 66.7869 48.1406 65.8291C48.1513 65.104 48.7567 64.5271 49.481 64.5181C50.2223 64.5087 50.8411 65.0901 50.8605 65.8318C50.8732 66.3237 50.8628 66.8162 50.863 67.3085Z" fill="#F5CA35"/>
<path d="M0 33.8342C0.293256 33.2764 0.747382 33.0809 1.37703 33.1136C2.23333 33.1581 3.09384 33.1247 3.88639 33.1247C3.58947 32.3303 3.21483 31.5707 3.02479 30.7673C2.66304 29.2383 2.91601 27.7588 3.79686 26.4505C4.90885 24.7989 4.89528 23.2176 3.81463 21.5465C1.81596 18.4555 3.21632 14.2271 6.65251 12.9077C8.46183 12.2131 9.38296 10.9618 9.47276 9.00409C9.64136 5.33039 13.3159 2.68742 16.8735 3.6559C18.7313 4.1617 20.2182 3.68384 21.4183 2.18338C23.7434 -0.723948 28.2532 -0.730323 30.5747 2.17945C31.4442 3.26919 32.5107 3.90073 33.9199 3.86262C34.269 3.85312 34.6217 3.76767 34.9623 3.6776C38.8188 2.65731 42.4347 5.35874 42.5456 9.34956C42.5884 10.8929 43.58 12.2235 45.1516 12.8174C47.0754 13.5443 48.3286 14.8928 48.8713 16.87C49.3226 18.5144 49.152 20.1178 48.1854 21.5343C47.0442 23.2066 47.1705 24.784 48.1957 26.4464C49.5581 28.6556 49.3815 30.8702 48.0107 33.081C48.1429 33.0964 48.2638 33.1221 48.3848 33.1227C49.1463 33.1265 49.9132 33.1821 50.6681 33.1111C51.8199 33.0029 52.2918 34.026 51.7468 34.9192C50.6032 36.7934 49.5689 38.734 48.4624 40.6314C48.2521 40.9919 48.2813 41.2439 48.4879 41.5827C49.5785 43.3721 50.6401 45.1793 51.7242 46.9726C51.9764 47.3897 52.1252 47.8 51.86 48.2537C51.6073 48.6861 51.1965 48.7674 50.7262 48.7672C34.2432 48.7618 17.7602 48.7603 1.2772 48.7723C0.679019 48.7727 0.27725 48.5592 0.000135641 48.0548C0.000135641 47.8179 0.000135641 47.5808 0.000135641 47.3438C0.044219 47.2991 0.0975259 47.2601 0.130894 47.2085C1.37513 45.2803 2.61204 43.3474 3.86672 41.4261C4.03057 41.1751 4.01891 41.005 3.86617 40.7594C2.85104 39.126 1.85516 37.4807 0.846535 35.8432C0.57566 35.4035 0.282811 34.9774 0.000135641 34.545C0 34.3083 0 34.0712 0 33.8342ZM40.6991 33.1247C41.8359 33.1247 43.0044 33.1565 44.1697 33.1078C44.5832 33.0905 45.0447 32.9637 45.388 32.7395C47.0642 31.6451 47.5822 29.2516 46.4838 27.5821C44.9071 25.1856 44.9052 22.8321 46.4485 20.4184C46.762 19.9282 46.9627 19.296 47.0038 18.7142C47.1384 16.8106 46.2056 15.4462 44.3683 14.7276C42.7738 14.1039 41.576 13.0394 40.9676 11.4474C40.6546 10.6281 40.5474 9.71525 40.445 8.83345C40.2082 6.79436 38.0926 5.17793 36.072 5.55148C35.5085 5.65565 34.9535 5.83714 34.3863 5.88462C32.2002 6.06773 30.4328 5.27057 29.0528 3.55837C27.4352 1.55116 24.6028 1.5304 22.9835 3.50995C21.2342 5.64846 19.035 6.34688 16.3786 5.63965C15.6733 5.45192 14.9796 5.45273 14.2806 5.66976C12.6028 6.19049 11.6699 7.46185 11.4953 9.48588C11.2747 12.0442 9.95062 13.7731 7.58748 14.7471C7.14068 14.9313 6.68846 15.163 6.32263 15.4723C4.83967 16.726 4.52159 18.8284 5.56671 20.4685C6.2167 21.4885 6.65495 22.5633 6.69565 23.7815C6.74149 25.1485 6.30785 26.36 5.56766 27.5C4.37442 29.3376 4.92757 31.7489 6.77893 32.8476C7.05279 33.0101 7.40532 33.1063 7.72448 33.114C8.95936 33.1442 10.1953 33.1273 11.4309 33.125C11.5706 33.1247 11.7103 33.1057 11.888 33.0926C11.8214 32.9682 11.7853 32.8938 11.7431 32.8233C9.24787 28.6547 8.63341 24.1967 9.98196 19.5575C11.6703 13.7495 15.4084 9.814 21.2056 7.92154C21.9049 7.69325 22.472 7.95545 22.643 8.54196C22.8212 9.1537 22.5163 9.62695 21.8107 9.87327C15.6568 12.0214 12.2307 16.3844 11.4687 22.8134C11.0368 26.4578 12.043 29.7726 14.1521 32.7635C14.3349 33.0228 14.5265 33.1347 14.8569 33.1343C22.4395 33.1239 30.0222 33.1243 37.6048 33.1333C37.9256 33.1337 38.1227 33.0445 38.3126 32.7779C40.7007 29.4262 41.5493 25.6828 40.8898 21.6663C40.0287 16.4216 37.0218 12.7357 32.241 10.4812C31.6034 10.1805 30.9115 9.99576 30.2478 9.74876C29.7626 9.56822 29.5167 9.19127 29.5484 8.69428C29.5809 8.18576 29.8787 7.87013 30.3498 7.7783C30.5974 7.73001 30.8855 7.8 31.1373 7.8761C40.2493 10.6268 45.3072 20.3814 42.284 29.432C41.8656 30.6853 41.2434 31.8704 40.6991 33.1247ZM2.87288 35.1839C3.0054 35.4126 3.09397 35.5732 3.1896 35.7296C4.13284 37.2722 5.06551 38.8216 6.02788 40.3523C6.36889 40.8946 6.3598 41.3649 6.00795 41.897C5.06633 43.3208 4.15373 44.7639 3.23083 46.2001C3.13548 46.3485 3.04745 46.5018 2.92862 46.698C18.3627 46.698 33.7151 46.698 49.1343 46.698C49.025 46.4963 48.945 46.3349 48.8529 46.1806C47.9959 44.7443 47.15 43.3013 46.2718 41.8782C45.9497 41.3562 45.9438 40.8973 46.2526 40.3689C47.156 38.8231 48.0307 37.2605 48.9147 35.7035C49.0025 35.5489 49.0773 35.3868 49.1808 35.1839C33.7271 35.1839 18.3393 35.1839 2.87288 35.1839Z" fill="#2E3436"/>
<path d="M23.8719 21.8464C22.2722 19.913 23.4388 17.2452 25.4112 16.7382C26.6497 16.4199 27.9529 16.8397 28.7138 17.8581C29.524 18.9424 29.6104 20.3888 28.8739 21.4626C28.6506 21.788 28.6567 22.0036 28.8873 22.2942C29.1071 22.571 29.2683 22.8936 29.4768 23.1805C29.9487 23.8302 30.7786 23.978 31.4562 23.5457C31.5273 23.5004 31.5868 23.4343 31.6616 23.3976C32.2632 23.103 32.4258 22.7055 32.29 21.9955C31.973 20.338 33.4116 18.6402 35.1223 18.5104C36.901 18.3754 38.4504 19.7446 38.4881 21.4844C38.5218 23.0376 37.7878 24.0994 36.3545 24.6398C36.1598 24.7132 35.9501 24.9323 35.8834 25.1299C35.414 26.5202 34.9811 27.9229 34.5346 29.3209C34.2918 30.0813 34.0307 30.2776 33.2593 30.2777C28.5372 30.2786 23.815 30.2784 19.093 30.2779C18.3141 30.2777 18.0318 30.0751 17.8008 29.3364C17.3629 27.936 16.9417 26.5301 16.4831 25.1365C16.4183 24.9395 16.2128 24.7165 16.0204 24.6447C14.4611 24.0635 13.6795 22.7636 13.9199 21.0863C14.1242 19.6613 15.3773 18.5718 16.8862 18.5074C18.365 18.4443 19.7046 19.4673 20.0338 20.9941C20.1333 21.4555 20.0127 21.9613 20.0297 22.4454C20.0361 22.6275 20.0924 22.8694 20.2177 22.9763C21.7205 24.2569 22.6066 24.0711 23.5131 22.4176C23.6174 22.2268 23.7442 22.048 23.8719 21.8464ZM33.9261 24.4623C33.8938 24.4313 33.8617 24.4003 33.8294 24.3694C33.4359 24.6512 33.0485 24.9419 32.648 25.2132C30.9986 26.3307 28.8628 25.9241 27.7367 24.2789C27.4792 23.9026 27.2451 23.5105 26.9878 23.1342C26.917 23.0307 26.8127 22.9054 26.7031 22.8804C26.0561 22.7329 25.6342 22.9253 25.2596 23.503C25.1586 23.659 25.0557 23.8138 24.9541 23.9694C23.573 26.087 21.4969 26.4639 19.4449 24.9719C19.154 24.7603 18.8554 24.5595 18.5603 24.3536C18.521 24.3825 18.4816 24.4114 18.4423 24.4403C18.8361 25.7111 19.2298 26.9819 19.6221 28.2477C20.5838 28.2477 21.4794 28.2477 22.3749 28.2477C25.672 28.2477 28.969 28.2514 32.266 28.2378C32.4444 28.2372 32.739 28.1335 32.7818 28.0094C33.188 26.8354 33.5508 25.6467 33.9261 24.4623ZM26.2212 18.695C25.6086 18.7054 25.1614 19.1867 25.1766 19.8186C25.191 20.4129 25.6564 20.8502 26.2644 20.8407C26.8565 20.8314 27.3247 20.3591 27.3201 19.7756C27.3154 19.1656 26.8263 18.6847 26.2212 18.695ZM16.9675 20.5763C16.351 20.5899 15.9046 21.0711 15.9267 21.6982C15.9478 22.296 16.4211 22.7444 17.0128 22.727C17.6127 22.7095 18.1016 22.1916 18.0755 21.6012C18.0504 21.028 17.5481 20.5635 16.9675 20.5763ZM34.3147 21.6407C34.3139 22.2616 34.7892 22.7375 35.4001 22.7272C35.9911 22.7173 36.4522 22.2525 36.4606 21.6586C36.469 21.0592 35.9701 20.5653 35.3661 20.5752C34.7709 20.5848 34.3154 21.0463 34.3147 21.6407Z" fill="#2E3436"/>
<path d="M27.2612 8.19446C27.2539 8.74977 26.7594 9.22506 26.2088 9.20593C25.6776 9.18748 25.21 8.71437 25.2044 8.19012C25.1988 7.6504 25.7037 7.13782 26.2343 7.1446C26.7765 7.15165 27.2684 7.65461 27.2612 8.19446Z" fill="#2E3436"/>
<path d="M31.5841 40.7587C31.5841 41.8193 31.5863 42.88 31.5833 43.9406C31.5815 44.5901 31.2666 44.9757 30.7383 44.9884C30.1972 45.0015 29.859 44.5967 29.8585 43.9241C29.8567 41.9266 29.8635 39.9292 29.8539 37.9318C29.8516 37.4525 30.0124 37.1085 30.4873 36.9596C30.9541 36.8133 31.2675 37.045 31.5166 37.4041C32.2877 38.5156 33.0549 39.6298 33.8248 40.7422C33.9279 40.8913 34.0376 41.0357 34.2051 41.2659C34.2211 41.0322 34.2392 40.8915 34.2389 40.7509C34.2374 39.7861 34.2253 38.8211 34.2306 37.8564C34.2336 37.3092 34.5933 36.9152 35.0739 36.8978C35.5535 36.8805 35.9488 37.2643 35.9583 37.8066C35.9938 39.8206 36.0193 41.8348 36.0386 43.8489C36.0432 44.3315 35.8357 44.7195 35.3563 44.8673C34.8774 45.015 34.503 44.8125 34.2247 44.4078C33.3819 43.1822 32.5359 41.959 31.6913 40.7349C31.6555 40.743 31.6198 40.7509 31.5841 40.7587Z" fill="#2E3436"/>
<path d="M9.14057 40.9238C9.14057 39.8932 9.13596 38.8624 9.14261 37.832C9.14586 37.3271 9.42895 36.9316 9.89881 36.9178C10.7221 36.8935 11.5654 36.851 12.3686 36.9943C13.7373 37.2383 14.512 38.7409 14.0162 40.0423C13.9067 40.3294 13.9246 40.5051 14.1311 40.7485C14.8032 41.541 14.913 42.453 14.5152 43.401C14.1063 44.3753 13.3396 44.9139 12.2898 44.9804C11.5493 45.0272 10.8035 45.0081 10.0608 44.9915C9.47384 44.9785 9.14532 44.6173 9.14207 44.0159C9.1365 42.9851 9.14057 41.9545 9.14057 40.9238ZM10.8788 43.208C11.3519 43.208 11.7863 43.2278 12.2179 43.2026C12.6746 43.1758 12.9917 42.8541 12.9871 42.429C12.9823 41.9943 12.7612 41.6586 12.3239 41.6061C11.8523 41.5494 11.3685 41.5933 10.8788 41.5933C10.8788 42.1387 10.8788 42.6406 10.8788 43.208ZM10.8861 39.8252C11.2277 39.8252 11.5281 39.8437 11.8253 39.8203C12.1631 39.7939 12.3913 39.6215 12.3991 39.2494C12.4068 38.8767 12.1995 38.6902 11.8477 38.6704C11.5346 38.6526 11.2198 38.6667 10.8861 38.6667C10.8861 39.0648 10.8861 39.4118 10.8861 39.8252Z" fill="#2E3436"/>
<path d="M37.3913 40.8737C37.3911 39.9428 37.3848 39.0119 37.393 38.081C37.3995 37.3326 37.7393 36.9983 38.4805 36.992C38.9713 36.988 39.462 36.9888 39.9528 36.9918C41.4158 37.0005 42.4832 37.7013 43.0165 39.06C43.5563 40.435 43.5139 41.8101 42.8402 43.1321C42.2606 44.2695 41.2996 44.8489 40.0251 44.8919C39.5179 44.909 39.0098 44.9002 38.5023 44.8982C37.7692 44.8953 37.4079 44.5577 37.3957 43.8186C37.3794 42.8372 37.3916 41.8553 37.3913 40.8737ZM39.2092 38.7679C39.2092 40.2405 39.2092 41.6666 39.2092 43.117C40.0122 43.1518 40.7985 43.2201 41.2493 42.4108C41.7883 41.443 41.7966 40.4281 41.271 39.4632C40.8331 38.6593 40.0311 38.7162 39.2092 38.7679Z" fill="#2E3436"/>
<path d="M19.3435 41.8224C19.8268 42.3761 20.2863 42.8928 20.7345 43.4192C21.1437 43.8998 21.1466 44.4304 20.7574 44.7676C20.3468 45.1234 19.8688 45.061 19.4266 44.5717C18.8636 43.9487 18.3132 43.3142 17.6503 42.5634C17.6503 43.1229 17.6588 43.5353 17.6484 43.9472C17.6321 44.588 17.2975 44.9792 16.7745 44.9887C16.2501 44.9982 15.8817 44.6117 15.8777 43.9739C15.8651 41.96 15.8654 39.9458 15.8771 37.9318C15.881 37.2396 16.2315 36.9012 16.9131 36.8959C17.5385 36.891 18.1718 36.8529 18.788 36.9336C19.9697 37.0885 20.8621 37.9501 21.0161 38.9848C21.1904 40.1558 20.6908 41.0959 19.5791 41.6899C19.5197 41.7216 19.4616 41.7558 19.3435 41.8224ZM17.6847 40.2156C18.2699 40.1584 18.8818 40.3549 19.1895 39.7498C19.2882 39.556 19.2636 39.1895 19.1387 39.0126C18.779 38.5029 18.2147 38.684 17.6847 38.6675C17.6847 39.1952 17.6847 39.6743 17.6847 40.2156Z" fill="#2E3436"/>
<path d="M25.4585 43.4462C25.374 43.4462 25.2874 43.4584 25.2052 43.4443C24.4596 43.3168 23.9822 43.5275 23.7852 44.3442C23.6513 44.8997 23.1424 45.1023 22.68 44.9324C22.1803 44.7486 21.961 44.2852 22.1673 43.7347C22.9361 41.684 23.7198 39.6389 24.5024 37.5934C24.6704 37.154 25.0087 36.906 25.4722 36.9092C25.9334 36.9125 26.2657 37.1554 26.4336 37.6017C27.2111 39.6676 27.996 41.7307 28.7651 43.7996C28.9468 44.2882 28.7323 44.7281 28.2736 44.9175C27.8284 45.1011 27.2637 44.9293 27.1699 44.4293C26.9834 43.4349 26.3544 43.3484 25.5597 43.4456C25.5266 43.4497 25.4923 43.4462 25.4585 43.4462ZM26.0915 41.6554C25.8864 41.1114 25.6957 40.6056 25.4642 39.9918C25.2313 40.613 25.044 41.1127 24.8405 41.6554C25.2835 41.6554 25.6332 41.6554 26.0915 41.6554Z" fill="#2E3436"/>
</g>
<defs>
<clipPath id="clip0_44_20892">
<rect width="70" height="70" fill="white"/>
</clipPath>
</defs>
</svg>
