<svg width="60" height="60" viewBox="0 0 60 60" fill="none" xmlns="http://www.w3.org/2000/svg">
<path d="M1.33979 25.0958C4.87225 25.1141 8.66396 25.1044 12.1966 25.1044C12.4273 25.1044 12.6581 25.1044 12.9522 25.1044C12.9652 24.8482 12.9846 24.642 12.9848 24.4356C12.9869 21.9092 12.9963 19.3828 12.9782 16.8566C12.9743 16.3054 13.179 16.0214 13.6959 15.8137C20.9922 12.8807 28.2829 9.93292 35.5667 6.96908C36.192 6.71466 36.733 6.72462 37.3532 6.98035C44.6781 9.99975 52.0105 13.0007 59.3433 16.0001C59.7728 16.1758 59.9828 16.4343 59.9824 16.9237C59.9731 25.5603 59.9713 34.1969 59.9833 42.8335C59.9843 43.5795 59.5674 43.903 58.9642 44.1535C52.0789 47.0143 45.1826 49.8487 38.3259 52.7771C36.9878 53.3485 35.8904 53.3728 34.5344 52.7913C27.6641 49.8449 20.7486 47.0048 13.8413 44.1458C13.1245 43.8491 12.8191 43.3978 12.8457 42.6244C12.8835 41.5289 12.8551 40.4313 12.8551 39.3345C12.8551 39.1249 12.8551 38.9152 12.8551 38.6603C12.5682 38.6603 12.3565 38.6603 12.1448 38.6603C9.27577 38.6603 6.40675 38.6618 3.53772 38.6594C2.71714 38.6587 2.25417 38.2874 2.24179 37.6358C2.22877 36.9552 2.70297 36.5542 3.5475 36.5532C6.41652 36.5496 9.28555 36.5519 12.1546 36.5518C12.365 36.5518 12.5752 36.5518 12.8182 36.5518C12.8182 35.3524 12.8182 34.2079 12.8182 33.014C11.5162 33.014 10.2507 33.026 8.98542 33.0101C8.04335 32.9982 7.50792 32.2434 7.89061 31.4898C8.10801 31.0618 8.48011 30.9004 8.95285 30.9038C10.2203 30.9131 11.4879 30.9069 12.8051 30.9069C12.8051 29.7361 12.8051 28.5951 12.8051 27.3671C12.5799 27.3671 12.3549 27.3671 12.1298 27.3671C8.71428 27.3671 4.64801 27.3754 1.23264 27.3754C0.65388 27.3754 0.0166626 27.0736 0.0166626 26.202C0.0168254 25.3492 0.833662 25.0958 1.33979 25.0958ZM37.4913 50.8152C37.741 50.7252 37.8872 50.6793 38.0281 50.6204C44.5142 47.9166 50.9981 45.207 57.4902 42.5172C57.9038 42.3458 57.9629 42.1038 57.9611 41.716C57.9287 34.1572 57.9074 26.5984 57.8823 19.0395C57.8818 18.8717 57.8644 18.7037 57.8523 18.4924C57.6256 18.5743 57.4424 18.6316 57.2661 18.7053C50.8548 21.3868 44.447 24.0761 38.0281 26.7386C37.5794 26.9247 37.4812 27.1519 37.4821 27.5973C37.4951 35.1171 37.4913 42.6368 37.4913 50.1565C37.4913 50.3493 37.4913 50.542 37.4913 50.8152ZM35.3497 50.81C35.3616 50.5811 35.3766 50.4284 35.3766 50.276C35.3778 42.6773 35.3738 35.0787 35.388 27.48C35.3888 27.0707 35.24 26.9148 34.8858 26.7677C28.4493 24.0951 22.019 21.4074 15.5867 18.7244C15.413 18.652 15.2319 18.5976 15.0138 18.5207C15.0138 20.7909 15.0138 22.9921 15.0138 25.2585C15.7103 25.2585 16.37 25.2387 17.0281 25.2639C17.7208 25.2904 18.1442 25.8193 18.0441 26.4805C17.9635 27.013 17.521 27.3476 16.8364 27.364C16.237 27.3782 15.637 27.3669 15.0177 27.3669C15.0177 28.5717 15.0177 29.7121 15.0177 30.8997C15.2701 30.8997 15.4815 30.8997 15.6931 30.8997C18.6987 30.9001 21.7044 30.8963 24.71 30.9035C25.4112 30.9051 25.8838 31.3445 25.8801 31.9473C25.8765 32.5178 25.4179 32.9555 24.761 33.0075C24.6058 33.0198 24.4488 33.0118 24.2928 33.0118C21.4042 33.0119 18.5157 33.0119 15.6271 33.0119C15.4209 33.0119 15.2148 33.0119 15.0047 33.0119C15.0047 34.2286 15.0047 35.3574 15.0047 36.5228C15.2215 36.5323 15.412 36.5477 15.6025 36.548C16.7735 36.5503 17.9446 36.5424 19.1156 36.5519C19.8372 36.5578 20.2772 36.9549 20.2876 37.5773C20.2985 38.2281 19.8528 38.6373 19.1039 38.6562C18.8112 38.6636 18.5184 38.6577 18.2256 38.6577C17.1585 38.6577 16.0912 38.6577 14.9752 38.6577C14.9752 39.7429 14.9962 40.758 14.9651 41.7716C14.9523 42.1938 15.1016 42.3829 15.4858 42.5425C21.9214 45.217 28.3503 47.9079 34.7811 50.5943C34.954 50.6665 35.1315 50.7276 35.3497 50.81ZM44.9378 12.3618C44.6266 12.2292 44.4543 12.1523 44.2793 12.082C41.8235 11.0949 39.3714 10.0986 36.9061 9.13615C36.6383 9.03157 36.2579 9.03108 35.9914 9.13762C30.1351 11.4751 24.2876 13.8347 18.4383 16.19C17.8977 16.4078 17.3572 16.6263 16.7729 16.8619C16.8851 16.9448 16.9269 16.9902 16.9786 17.0118C19.7261 18.1602 22.4719 19.3135 25.2285 20.4397C25.4422 20.527 25.762 20.4884 25.9854 20.3949C28.7866 19.2223 31.5782 18.0275 34.3736 16.841C37.8486 15.3661 41.3247 13.8935 44.9378 12.3618ZM56.1325 16.8989C55.9675 16.8213 55.8873 16.7786 55.8034 16.7448C53.2251 15.7019 50.6496 14.6514 48.062 13.6321C47.8293 13.5404 47.4862 13.5777 47.2466 13.6791C41.1196 16.2732 34.9993 18.8836 28.8786 21.4927C28.7283 21.5567 28.5854 21.6388 28.4008 21.7317C28.4965 21.8035 28.5346 21.8455 28.582 21.8654C31.1099 22.9301 33.6355 24.0009 36.1731 25.0417C36.3846 25.1284 36.7056 25.0732 36.932 24.9788C43.1427 22.3841 49.3478 19.7758 55.5536 17.1687C55.7259 17.0963 55.893 17.011 56.1325 16.8989Z" fill="#2E3436"/>
</svg>
