<svg width="70" height="70" viewBox="0 0 70 70" fill="none" xmlns="http://www.w3.org/2000/svg">
<path d="M44.6829 47.0126C44.8975 47.971 45.485 48.6677 46.0938 49.3457C47.7934 51.2386 49.7723 52.8157 51.8139 54.4117C52.8762 53.5332 53.9554 52.6967 54.9684 51.7867C55.909 50.9417 56.7986 50.0369 57.673 49.1222C58.2337 48.5355 58.7101 47.8741 58.8888 47.0207C59.9524 47.1004 60.9779 47.3265 61.9499 47.7269C66.1414 49.4537 68.6204 52.5681 69.366 57.0373C69.5636 58.2213 69.5441 59.4215 69.2786 60.601C68.8239 62.6213 67.4936 63.7629 65.5452 64.2683C63.9052 64.6938 62.2254 64.7337 60.5485 64.7398C55.9648 64.756 51.381 64.7497 46.7974 64.7433C44.9472 64.7407 43.0963 64.7416 41.2471 64.6907C39.9115 64.6539 38.5857 64.502 37.3143 64.034C35.4367 63.3429 34.4219 61.9577 34.204 60.0221C33.5007 53.7772 37.5601 48.3206 43.751 47.1363C44.0551 47.0779 44.3655 47.0538 44.6829 47.0126ZM61.7868 56.4991C61.7868 55.8947 61.7733 55.3549 61.7912 54.8163C61.8044 54.4237 61.6718 54.2348 61.2516 54.2572C60.798 54.2814 60.342 54.2615 59.887 54.2629C59.335 54.2645 59.3053 54.2938 59.3038 54.843C59.3024 55.3901 59.3035 55.9371 59.3035 56.4991C58.6764 56.4991 58.122 56.5108 57.5684 56.4948C57.2082 56.4845 57.0444 56.6177 57.0566 56.9907C57.0728 57.4878 57.0715 57.9861 57.0562 58.4832C57.0449 58.8507 57.2005 58.9957 57.5643 58.9859C58.1286 58.9707 58.6935 58.9819 59.3034 58.9819C59.3034 59.6049 59.3113 60.184 59.3003 60.7627C59.2941 61.0893 59.4317 61.2281 59.7581 61.2209C60.2554 61.21 60.754 61.201 61.2507 61.2237C61.6692 61.2427 61.8038 61.0545 61.7912 60.6623C61.7738 60.1136 61.7868 59.5639 61.7868 58.982C62.4044 58.982 62.9705 58.9746 63.5361 58.9848C63.8746 58.9908 64.0323 58.8588 64.0219 58.5061C64.0069 57.9947 64.0068 57.4822 64.0219 56.9708C64.0326 56.6156 63.8709 56.4896 63.5338 56.4962C62.9682 56.5072 62.4024 56.4991 61.7868 56.4991Z" fill="#F5CA35"/>
<path d="M61.5588 34.897C61.4165 38.381 60.3301 41.329 58.5442 44.0383C57.7401 45.2582 56.7762 46.338 55.5881 47.2034C53.098 49.0173 50.4141 49.006 47.9424 47.1619C46.2538 45.9021 45.0319 44.2538 44.0689 42.4053C42.8397 40.0459 42.0374 37.5636 42.0571 34.8708C42.0911 30.2525 45.7053 26.1327 50.2775 25.4825C55.4946 24.7405 60.1242 27.9032 61.304 33.039C61.4587 33.7126 61.4949 34.4136 61.5588 34.897Z" fill="#F5CA35"/>
<path d="M0 8.92848C0.180322 8.70346 0.341475 8.45939 0.543704 8.25628C3.09888 5.69114 5.66528 3.13723 8.21375 0.565515C8.60191 0.173806 9.00801 -0.000818879 9.56719 2.88623e-06C19.2149 0.013699 28.8627 0.00972711 38.5104 0.010001C39.5713 0.010001 39.8682 0.310356 39.8682 1.38399C39.8684 10.1465 39.8684 18.9091 39.8684 27.6716C39.8684 27.8548 39.8684 28.0381 39.8684 28.351C40.0521 28.1194 40.1771 27.9919 40.2675 27.8433C41.0905 26.4903 41.9617 25.1629 42.7133 23.7709C43.7748 21.8049 46.0214 20.5888 48.1221 20.955C50.3845 21.3495 52.1203 23.1134 52.4504 25.3539C52.7724 27.5387 51.5008 29.7576 49.411 30.7839C46.3076 32.308 43.5923 34.3931 41.04 36.7031C41.0164 36.7243 41.0057 36.7596 40.9529 36.8506C41.6007 37.4958 42.2612 38.1553 42.9236 38.8128C43.7437 39.627 44.3022 40.5759 44.4961 41.733C44.7647 43.3351 44.3566 44.7486 43.312 45.9672C42.802 46.5622 42.2312 47.1074 41.6636 47.6498C41.1403 48.1498 40.6843 48.1011 39.903 47.4823C39.8896 47.6571 39.87 47.7972 39.8696 47.9373C39.867 49.0134 39.8425 50.0903 39.8781 51.1653C39.8985 51.7811 39.7147 52.23 39.1505 52.4999C34.231 52.4999 29.3115 52.4999 24.3922 52.4999C24.1597 52.2422 23.8223 52.0215 23.7161 51.7193C23.4792 51.0457 24.0303 50.4517 24.8229 50.4513C28.922 50.4487 33.0212 50.4501 37.1203 50.4501C37.325 50.4501 37.5297 50.4501 37.7579 50.4501C37.7794 50.3626 37.8149 50.2849 37.8151 50.2073C37.8188 48.6867 37.8318 47.1659 37.8035 45.6459C37.7995 45.4308 37.6334 45.1768 37.4701 45.0128C33.6497 41.1752 29.8192 37.3476 25.9907 33.5182C25.1447 32.6719 25.1465 32.2418 26.0045 31.3832C26.415 30.9725 26.8172 30.5521 27.2454 30.1606C29.2789 28.3008 32.2198 28.2896 34.2513 30.1636C35.0282 30.8802 35.733 31.6749 36.5137 32.4785C36.9471 31.9949 37.3523 31.5847 37.7004 31.1305C37.8157 30.9801 37.8143 30.7166 37.8144 30.5049C37.8197 22.6117 37.8188 14.7184 37.8188 6.82518C37.8188 5.25684 37.8188 3.68836 37.8188 2.08989C28.6193 2.08989 19.459 2.08989 10.2489 2.08989C10.2489 2.293 10.2489 2.47626 10.2489 2.65937C10.2489 4.77788 10.2499 6.8964 10.2484 9.01491C10.2477 9.90817 9.90031 10.2599 9.01801 10.2606C6.90015 10.2621 4.78229 10.2611 2.66444 10.2611C2.4796 10.2611 2.29476 10.2611 2.08061 10.2611C2.08061 23.6667 2.08061 37.0327 2.08061 50.4502C2.29859 50.4502 2.49876 50.4502 2.6988 50.4502C6.91754 50.4502 11.1361 50.449 15.3549 50.4515C16.1478 50.4519 16.696 51.0438 16.4599 51.7206C16.3547 52.0224 16.0161 52.2426 15.7833 52.5C10.5222 52.5 5.2611 52.5 0 52.5C0 37.976 0 23.4522 0 8.92848ZM40.9458 45.4416C41.187 45.1968 41.4322 44.9598 41.6645 44.7105C42.7935 43.4988 42.8183 41.6791 41.6519 40.4985C38.7352 37.5463 35.793 34.6192 32.852 31.6911C32.2855 31.1272 31.5805 30.8684 30.7726 30.852C29.4914 30.8258 28.6619 31.5715 27.931 32.4204C32.2614 36.7531 36.5814 41.075 40.9458 45.4416ZM39.4367 35.2851C39.4872 35.2672 39.5065 35.2657 39.5179 35.2554C42.3627 32.7119 45.3882 30.4324 48.826 28.7278C49.9246 28.1831 50.5703 26.7949 50.3912 25.6791C50.1637 24.2611 49.1539 23.2387 47.7441 22.9989C46.5414 22.7943 45.1945 23.561 44.5496 24.7634C44.0107 25.768 43.4628 26.7722 42.8466 27.7301C41.4332 29.9279 39.8173 31.9739 38.0317 33.8966C38.5044 34.3638 38.9642 34.8182 39.4367 35.2851ZM3.61041 8.17657C5.16361 8.17657 6.6667 8.17657 8.15569 8.17657C8.15569 6.64288 8.15569 5.14439 8.15569 3.63316C6.63384 5.15425 5.14116 6.64644 3.61041 8.17657Z" fill="#2E3436"/>
<path d="M19.7806 52.5001C19.5437 52.2113 19.2056 51.9565 19.0939 51.6254C18.9305 51.1411 19.3051 50.6273 19.7869 50.4822C20.2585 50.34 20.7658 50.5538 21 50.9934C21.2427 51.449 21.119 51.9878 20.6937 52.3083C20.5996 52.3792 20.4953 52.4366 20.3957 52.5001C20.1907 52.5001 19.9856 52.5001 19.7806 52.5001Z" fill="#2E3436"/>
<path d="M19.9111 19.0778C15.0785 19.0778 10.2456 19.078 5.41297 19.0776C4.41949 19.0775 4.10088 18.7571 4.10047 17.7595C4.09992 16.5296 4.09718 15.2997 4.10156 14.0698C4.10417 13.3169 4.48425 12.9293 5.22991 12.9292C15.0319 12.9273 24.8341 12.9273 34.6361 12.9292C35.3854 12.9293 35.7644 13.3127 35.7673 14.0661C35.7721 15.3131 35.7697 16.56 35.7684 17.807C35.7674 18.7351 35.4294 19.0773 34.5117 19.0775C29.6448 19.0782 24.7779 19.0778 19.9111 19.0778ZM14.9866 16.9923C21.2512 16.9923 27.4717 16.9923 33.6771 16.9923C33.6771 16.3003 33.6771 15.6457 33.6771 15.0044C27.4263 15.0044 21.2179 15.0044 14.9866 15.0044C14.9866 15.6737 14.9866 16.3159 14.9866 16.9923ZM6.18711 14.9989C6.18711 15.6956 6.18711 16.3499 6.18711 16.9877C8.44873 16.9877 10.6727 16.9877 12.8861 16.9877C12.8861 16.3043 12.8861 15.6622 12.8861 14.9989C10.6463 14.9989 8.43449 14.9989 6.18711 14.9989Z" fill="#2E3436"/>
<path d="M19.1014 41.6334C20.1181 38.0354 23.2373 37.1701 25.3276 37.6413C27.7507 38.1875 29.3873 40.368 29.3078 43.001C29.2376 45.3276 27.3168 47.4152 24.8524 47.7494C22.365 48.0866 19.8429 46.5689 19.1271 43.6823C17.4144 43.6823 15.6922 43.6864 13.9702 43.68C13.4073 43.6778 12.9947 43.328 12.9214 42.8258C12.8486 42.326 13.1213 41.8414 13.5915 41.6906C13.7647 41.6352 13.9605 41.6361 14.146 41.6357C15.8003 41.6319 17.4547 41.6334 19.1014 41.6334ZM21.3514 43.6825C21.7839 45.0359 23.2451 45.9288 24.5776 45.6952C26.1712 45.4158 27.285 44.1399 27.2604 42.6218C27.2352 41.0645 26.0681 39.8061 24.4574 39.5998C23.1488 39.4322 21.7001 40.3714 21.3631 41.6337C22.2905 41.6337 23.2092 41.6282 24.1278 41.6355C24.7897 41.6407 25.2151 42.0539 25.211 42.6662C25.2069 43.2758 24.7802 43.6763 24.1107 43.681C23.2059 43.6873 22.3012 43.6825 21.3514 43.6825Z" fill="#2E3436"/>
<path d="M19.9066 23.1787C15.0228 23.1787 10.1389 23.1797 5.25519 23.1776C4.52131 23.1773 4.08029 22.7637 4.10124 22.1127C4.11808 21.5899 4.50679 21.1778 5.03009 21.1329C5.13183 21.1241 5.23492 21.1296 5.33734 21.1296C15.0707 21.1295 24.8043 21.1293 34.5377 21.1299C35.2671 21.1299 35.6994 21.4446 35.7639 22.0155C35.8357 22.6502 35.4086 23.1577 34.7629 23.1747C34.1657 23.1905 33.5676 23.1787 32.97 23.1787C28.6154 23.1787 24.261 23.1787 19.9066 23.1787Z" fill="#2E3436"/>
<path d="M19.9095 27.2791C15.0257 27.2791 10.1418 27.2799 5.25808 27.2782C4.52296 27.2779 4.08181 26.8665 4.10112 26.2162C4.11659 25.693 4.50448 25.2794 5.02696 25.2336C5.12869 25.2247 5.23179 25.2302 5.33421 25.2302C15.0676 25.23 24.8012 25.2299 34.5346 25.2305C35.2653 25.2305 35.6974 25.5431 35.7635 26.1132C35.8371 26.7473 35.4103 27.2547 34.7657 27.2757C34.3051 27.2908 33.8437 27.2793 33.3827 27.2793C28.8916 27.2793 24.4005 27.2791 19.9095 27.2791Z" fill="#2E3436"/>
<path d="M13.6333 31.3797C10.8162 31.3797 7.99919 31.3776 5.18209 31.3818C4.70137 31.3825 4.35592 31.1806 4.17492 30.7405C4.00254 30.3214 4.06839 29.9041 4.42014 29.6243C4.62798 29.459 4.93961 29.3434 5.20482 29.3426C10.8218 29.3268 16.4389 29.3296 22.0558 29.3322C22.7281 29.3324 23.1547 29.732 23.1611 30.3405C23.1679 30.972 22.736 31.3775 22.0331 31.3784C19.2331 31.3817 16.4332 31.3797 13.6333 31.3797Z" fill="#2E3436"/>
<path d="M11.6198 33.4311C13.7024 33.4311 15.7851 33.4299 17.8678 33.4318C18.6235 33.4325 19.0615 33.8112 19.0617 34.4548C19.0618 35.0991 18.624 35.4794 17.869 35.4797C13.6696 35.481 9.47013 35.4812 5.2707 35.4794C4.52846 35.4791 4.08868 35.0791 4.10128 34.4303C4.11333 33.8096 4.54873 33.4328 5.2696 33.432C7.38623 33.4296 9.50299 33.4311 11.6198 33.4311Z" fill="#2E3436"/>
<path d="M21.3916 8.20841C21.0336 8.20841 20.6747 8.22417 20.3178 8.20472C19.7709 8.17472 19.3759 7.74042 19.3719 7.19463C19.3679 6.64692 19.7573 6.18742 20.2994 6.16975C21.0488 6.14524 21.8002 6.14469 22.5494 6.17044C23.0899 6.18906 23.4755 6.6524 23.4685 7.20189C23.4615 7.74823 23.0663 8.17732 22.5167 8.20499C22.1426 8.22362 21.7668 8.20841 21.3916 8.20841Z" fill="#2E3436"/>
<path d="M27.5847 6.16246C27.9428 6.16273 28.3015 6.1489 28.6587 6.16602C29.2112 6.19245 29.6082 6.61553 29.6179 7.16159C29.6281 7.73299 29.2279 8.18797 28.6551 8.204C27.9396 8.224 27.2228 8.22208 26.5072 8.2051C25.9272 8.1914 25.5205 7.75203 25.5212 7.18364C25.5219 6.61566 25.9298 6.18725 26.5107 6.16479C26.8682 6.15082 27.2267 6.16219 27.5847 6.16246Z" fill="#2E3436"/>
<path d="M33.6861 8.20819C33.328 8.20819 32.969 8.22462 32.6122 8.20435C32.0662 8.1734 31.6728 7.7365 31.6706 7.19016C31.6684 6.64286 32.0591 6.18637 32.6024 6.16925C33.3517 6.14556 34.1031 6.14501 34.8523 6.17048C35.3721 6.18829 35.7555 6.63149 35.7672 7.15468C35.7797 7.70527 35.3993 8.16436 34.8621 8.2012C34.4719 8.22791 34.0782 8.20641 33.6861 8.20641C33.6861 8.20709 33.6861 8.20764 33.6861 8.20819Z" fill="#2E3436"/>
<path d="M22.118 33.4328C22.7079 33.4233 23.1585 33.8619 23.1618 34.4485C23.1651 35.0375 22.7215 35.4828 22.1336 35.4805C21.5677 35.4783 21.1289 35.0518 21.1142 34.4897C21.0989 33.9006 21.5344 33.4421 22.118 33.4328Z" fill="#2E3436"/>
</svg>
