<svg width="20" height="20" viewBox="0 0 20 20" fill="none" xmlns="http://www.w3.org/2000/svg">
<path d="M8.4 14.7941V12.3236C8.4 11.8868 8.56857 11.4679 8.86863 11.159C9.16869 10.8501 9.57565 10.6766 10 10.6766C10.4243 10.6766 10.8313 10.8501 11.1314 11.159C11.4314 11.4679 11.6 11.8868 11.6 12.3236V14.7941M2 6.55911L9.7856 2.55194C9.85218 2.51773 9.92558 2.49992 10 2.49992C10.0744 2.49992 10.1478 2.51773 10.2144 2.55194L18 6.55911" stroke="#C4C4C4" stroke-width="1.4" stroke-linecap="round" stroke-linejoin="round"/>
<path d="M16.3996 9.26505V15.8531C16.3996 16.2899 16.231 16.7088 15.931 17.0177C15.6309 17.3266 15.224 17.5001 14.7996 17.5001H5.19961C4.77526 17.5001 4.3683 17.3266 4.06824 17.0177C3.76818 16.7088 3.59961 16.2899 3.59961 15.8531V9.26505" stroke="#C4C4C4" stroke-width="1.4" stroke-linecap="round" stroke-linejoin="round"/>
</svg>
