<svg width="70" height="70" viewBox="0 0 70 70" fill="none" xmlns="http://www.w3.org/2000/svg">
<path d="M70 40.09C69.8669 40.7198 69.7534 41.3543 69.5963 41.9782C69.2969 43.1669 68.7766 44.2646 68.1462 45.3156C68.0283 45.512 67.8981 45.5804 67.6695 45.5799C64.4978 45.5725 61.3261 45.5715 58.1544 45.5814C57.8962 45.5821 57.7877 45.4794 57.6752 45.2708C56.3792 42.8692 55.074 40.4723 53.7676 38.0762C53.4105 37.4213 52.8658 37.18 52.2451 37.3876C51.8615 37.5159 51.6476 37.8047 51.4814 38.1532C49.9708 41.3194 48.4555 44.4833 46.9409 47.6476C46.8738 47.788 46.7999 47.9253 46.7062 48.1094C46.6087 47.9713 46.533 47.8717 46.4655 47.7668C45.4741 46.2276 44.4851 44.6869 43.4927 43.1484C42.838 42.1336 41.8482 42.144 41.2205 43.1713C40.7849 43.8844 40.3464 44.5958 39.9253 45.3172C39.8101 45.5148 39.678 45.5805 39.4507 45.58C36.7073 45.5724 33.9638 45.5712 31.2203 45.5815C30.957 45.5824 30.8178 45.4968 30.6826 45.2778C27.4934 40.11 28.6076 33.6562 33.3678 29.8439C35.7953 27.8998 38.5747 26.9568 41.6999 27.1496C44.4146 27.3172 46.7823 28.3863 48.8903 30.0551C49.066 30.1943 49.2397 30.3363 49.3486 30.424C50.3742 29.7684 51.3179 29.0626 52.3502 28.5227C57.4247 25.8689 63.5149 27.1095 67.1729 31.4949C68.6985 33.3239 69.6658 35.3917 69.9287 37.7641C69.9355 37.8257 69.9754 37.8836 69.9999 37.9433C70 38.6589 70 39.3744 70 40.09Z" fill="#F5CA35"/>
<path d="M32.792 47.961C33.4037 47.961 33.9223 47.961 34.4407 47.961C36.3416 47.961 38.2427 47.9479 40.1433 47.968C40.82 47.9751 41.2914 47.7279 41.6086 47.1353C41.8377 46.7072 42.1127 46.3031 42.3924 45.8472C43.1053 46.9548 43.787 48.013 44.4677 49.0719C44.8984 49.7417 45.3336 50.4088 45.7557 51.0841C46.0216 51.5095 46.3808 51.7874 46.8968 51.7647C47.4454 51.7407 47.784 51.4181 48.0151 50.9323C49.4997 47.8121 50.9957 44.6972 52.4885 41.5808C52.5497 41.4531 52.6166 41.3281 52.704 41.1564C52.8023 41.3192 52.8804 41.4382 52.9482 41.5626C53.9625 43.4251 54.9846 45.2835 55.9834 47.1541C56.2885 47.7255 56.7305 47.9679 57.3724 47.9654C60.0898 47.955 62.8072 47.961 65.5247 47.961C65.6714 47.961 65.8182 47.961 66.0626 47.961C65.9267 48.105 65.8459 48.1962 65.7592 48.2816C60.6452 53.3193 55.5312 58.3572 50.4153 63.3931C49.7639 64.0343 49.0953 64.0342 48.4527 63.4016C43.3277 58.3558 38.2034 53.3093 33.0793 48.2627C33.0042 48.1887 32.9337 48.11 32.792 47.961Z" fill="#F5CA35"/>
<path d="M21.319 53.375C24.2225 51.9883 26.9545 50.3236 29.4951 48.3565C32.8924 45.726 35.9351 42.7467 38.3601 39.1938C40.2508 36.4238 41.3942 33.3541 41.776 30.0271C41.9162 28.8065 41.979 27.5712 41.9825 26.3423C42.0018 19.6051 41.9821 12.8678 42 6.13078C42.0036 4.81209 41.5142 3.79853 40.3658 3.14701C39.2242 2.49941 38.1249 2.66137 37.0043 3.31889C33.52 5.36298 29.945 5.44233 26.3986 3.52602C25.4213 2.99796 24.6241 2.1435 23.7346 1.45126C23.192 1.02905 22.6829 0.511312 22.0671 0.246502C20.8617 -0.271893 19.748 0.0606525 18.7863 0.92869C17.9736 1.66217 17.2345 2.51233 16.3229 3.09494C12.7596 5.37238 9.06516 5.48984 5.31512 3.51114C5.08407 3.38924 4.86458 3.24581 4.63496 3.12091C2.58514 2.00646 0.0244484 3.48987 0.0210304 5.81847C0.0106468 13.0592 -0.0279961 20.3004 0.0354843 27.5406C0.0804367 32.6599 1.83703 37.1973 5.10444 41.1654C9.37363 46.3501 14.5164 50.4266 20.6121 53.3071C20.642 53.3212 20.6637 53.352 20.6893 53.375C20.8992 53.375 21.1091 53.375 21.319 53.375ZM2.11422 17.5295C2.11422 14.4044 2.11422 11.2792 2.11422 8.15412C2.11422 7.4423 2.10397 6.73023 2.11777 6.01867C2.13052 5.36337 2.52692 4.84367 3.07946 4.86325C3.40292 4.8746 3.74332 5.0491 4.03471 5.21981C5.87463 6.29784 7.85873 6.92508 9.98846 6.97925C13.8427 7.07739 17.1229 5.74029 19.7781 2.93976C19.9573 2.75064 20.1386 2.56023 20.339 2.39448C20.7959 2.01716 21.2106 2.00685 21.6564 2.38625C21.9604 2.64493 22.2218 2.95215 22.51 3.22975C25.8905 6.48552 29.885 7.62685 34.4858 6.6296C35.826 6.33908 37.0551 5.7677 38.2287 5.0645C39.044 4.57599 39.8265 5.00733 39.8912 5.95198C39.9018 6.10755 39.8939 6.26443 39.8939 6.42065C39.8941 12.8271 39.905 19.2337 39.885 25.6402C39.8809 26.9736 39.8234 28.3131 39.6846 29.6388C39.3707 32.6355 38.3894 35.4277 36.667 37.9053C32.7213 43.5812 27.483 47.7926 21.3747 50.9918C21.0881 51.142 20.8707 51.1129 20.6008 50.9738C16.8076 49.0189 13.366 46.5754 10.2796 43.6424C8.30442 41.7654 6.47409 39.7584 5.029 37.4423C3.00796 34.2034 2.13459 30.6381 2.11685 26.8525C2.10265 23.745 2.11422 20.6372 2.11422 17.5295Z" fill="#2E3436"/>
<path d="M6.33754 10.6572C11.7215 11.8915 16.5932 10.82 21.0029 7.51907C25.3812 10.8038 30.249 11.8915 35.6965 10.651C35.6965 10.8495 35.6965 11.0287 35.6965 11.2077C35.6969 12.8923 35.6907 14.5768 35.7016 16.2612C35.7052 16.8033 36.0624 17.2137 36.5516 17.3027C37.0309 17.3897 37.5154 17.1431 37.7006 16.6839C37.7695 16.5131 37.7897 16.313 37.7902 16.1262C37.796 13.8513 37.7981 11.5763 37.7919 9.30148C37.7897 8.45719 37.1728 7.99152 36.3571 8.2395C34.9672 8.66197 33.5635 8.96867 32.102 9.02388C29.0626 9.13873 26.2605 8.39311 23.6902 6.7946C23.1148 6.43673 22.5763 6.01609 22.0444 5.59493C21.184 4.91378 20.8156 4.89434 19.9821 5.58827C18.4649 6.85098 16.7734 7.79093 14.8792 8.37327C12.0129 9.25436 9.12759 9.31936 6.27853 8.39546C4.79492 7.91439 4.17587 8.33869 4.19204 9.90914C4.24934 15.4831 4.24685 21.058 4.20427 26.6322C4.1693 31.2079 5.58141 35.2233 8.53641 38.7486C11.8531 42.7053 15.7618 45.9311 20.2589 48.4729C20.7663 48.7598 21.2273 48.7572 21.7351 48.4707C26.6442 45.7013 30.8825 42.1542 34.3071 37.6884C36.2642 35.1364 37.3993 32.2288 37.6747 29.0292C37.7994 27.5804 37.771 26.1176 37.7877 24.6608C37.7951 24.0226 37.3498 23.5834 36.7606 23.5757C36.1506 23.5677 35.7219 24.0165 35.6968 24.6829C35.6392 26.2079 35.6651 27.742 35.5021 29.2558C35.1821 32.2294 33.9407 34.8249 32.0453 37.1471C29.0491 40.818 25.4836 43.8156 21.3926 46.2071C21.2085 46.3148 20.8687 46.3643 20.7028 46.2682C16.1325 43.6206 12.1996 40.2486 9.09039 35.9807C7.16465 33.3373 6.33991 30.3148 6.32085 27.0838C6.28918 21.7353 6.31191 16.3865 6.3131 11.0377C6.31296 10.918 6.32808 10.7983 6.33754 10.6572Z" fill="#2E3436"/>
<path d="M16.807 21.4884C15.1147 21.4884 13.4911 21.4875 11.8675 21.4888C10.86 21.4896 10.5117 21.8333 10.511 22.8285C10.5097 24.7386 10.5087 26.6486 10.5116 28.5587C10.5129 29.4411 10.8968 29.8211 11.7863 29.823C13.2727 29.826 14.7591 29.8238 16.2453 29.8238C16.4154 29.8238 16.5856 29.8238 16.807 29.8238C16.807 30.6319 16.8069 31.3911 16.807 32.1501C16.8072 33.0877 16.7988 34.0256 16.8105 34.9631C16.819 35.6524 17.2305 36.0692 17.9211 36.0723C19.9669 36.0816 22.0128 36.0808 24.0587 36.0732C24.781 36.0706 25.1939 35.6582 25.1981 34.9391C25.2069 33.4459 25.2008 31.9524 25.201 30.4592C25.201 30.2706 25.201 30.082 25.201 29.8238C25.417 29.8238 25.602 29.8238 25.7869 29.8238C27.2907 29.8238 28.7946 29.8277 30.2983 29.8219C31.0885 29.8189 31.4932 29.4206 31.4953 28.6388C31.5008 26.642 31.5013 24.6452 31.4949 22.6483C31.4924 21.8998 31.0815 21.4943 30.3259 21.4908C28.8221 21.4837 27.3182 21.4886 25.8145 21.4886C25.6269 21.4886 25.4394 21.4886 25.2008 21.4886C25.2008 20.6973 25.201 19.9555 25.2008 19.2137C25.2007 18.2588 25.2089 17.3036 25.1974 16.3487C25.1891 15.6599 24.7776 15.2433 24.0867 15.2402C22.0408 15.2309 19.9949 15.2317 17.9491 15.2393C17.2264 15.2419 16.8137 15.6542 16.8097 16.3728C16.801 17.8659 16.8069 19.3594 16.8068 20.8526C16.807 21.0411 16.807 21.2296 16.807 21.4884ZM18.9046 33.9704C18.9046 32.2604 18.9084 30.596 18.9029 28.9316C18.9002 28.1461 18.4995 27.746 17.7122 27.7426C16.2783 27.7363 14.8444 27.7408 13.4104 27.7406C13.1548 27.7406 12.8993 27.7406 12.6473 27.7406C12.6473 26.3148 12.6473 24.9547 12.6473 23.5712C14.3286 23.5712 15.971 23.573 17.6134 23.5705C18.5356 23.5691 18.9027 23.1983 18.9042 22.2696C18.9063 20.811 18.9047 19.3524 18.9047 17.8937C18.9047 17.7108 18.9047 17.5278 18.9047 17.3439C20.3373 17.3439 21.6946 17.3439 23.1036 17.3439C23.1036 17.5369 23.1036 17.7055 23.1036 17.8743C23.1036 19.3503 23.1015 20.8262 23.1044 22.3022C23.1062 23.1867 23.4887 23.5686 24.3753 23.5704C25.8617 23.5735 27.3481 23.5713 28.8344 23.5713C29.0174 23.5713 29.2003 23.5713 29.37 23.5713C29.37 25.0034 29.37 26.3512 29.37 27.7408C29.1694 27.7408 28.9983 27.7408 28.8272 27.7408C27.3583 27.7408 25.8894 27.7393 24.4205 27.7413C23.4629 27.7426 23.1055 28.1039 23.1038 29.0685C23.1023 29.9714 23.1034 30.8744 23.1034 31.7773C23.1034 32.5011 23.1034 33.2249 23.1034 33.9704C21.6898 33.9704 20.3326 33.9704 18.9046 33.9704Z" fill="#2E3436"/>
<path d="M35.6995 20.4684C35.7118 21.0506 36.2059 21.509 36.7943 21.4842C37.3574 21.4604 37.8019 20.9873 37.791 20.4234C37.7798 19.842 37.2843 19.3823 36.6967 19.4081C36.1322 19.4331 35.6875 19.9058 35.6995 20.4684Z" fill="#2E3436"/>
</svg>
