<svg width="20" height="20" viewBox="0 0 20 20" fill="none" xmlns="http://www.w3.org/2000/svg">
<g clip-path="url(#clip0_44_20369)">
<path d="M8.20312 0C12.7263 0 16.4062 3.67992 16.4062 8.20312C16.4062 10.1931 15.694 12.0199 14.511 13.4419L19.7693 18.6645C20.0754 18.9685 20.0771 19.4632 19.7731 19.7693C19.6203 19.923 19.4196 20 19.2187 20C19.0197 20 18.8206 19.9244 18.6682 19.773L13.4027 14.5434C11.9864 15.707 10.1749 16.4062 8.20312 16.4062C6.79585 16.4062 5.40718 16.0436 4.18734 15.3576C3.81124 15.1461 3.67785 14.6698 3.88937 14.2937C4.10085 13.9176 4.57718 13.7841 4.95328 13.9957C5.93976 14.5505 7.06355 14.8438 8.20312 14.8438C11.8648 14.8438 14.8437 11.8648 14.8437 8.20312C14.8437 4.54148 11.8648 1.5625 8.20312 1.5625C4.54148 1.5625 1.5625 4.54148 1.5625 8.20312C1.5625 9.35668 1.86261 10.4925 2.43035 11.4879C2.64414 11.8627 2.51359 12.3398 2.13882 12.5536C1.76402 12.7674 1.28691 12.6369 1.07312 12.2621C0.371088 11.0312 -3.8147e-06 9.6277 -3.8147e-06 8.20312C-3.8147e-06 3.67992 3.67992 0 8.20312 0Z" fill="#C4C4C4"/>
</g>
<defs>
<clipPath id="clip0_44_20369">
<rect width="20" height="20" fill="white" transform="matrix(-1 0 0 1 20 0)"/>
</clipPath>
</defs>
</svg>
