<svg width="24" height="24" viewBox="0 0 24 24" fill="none" xmlns="http://www.w3.org/2000/svg">
<path d="M18.291 9.8525L21.7686 8.17807C22.1959 7.97233 22.7091 8.15197 22.9148 8.57925C23.1205 9.00653 22.9409 9.51972 22.5137 9.72541L19.036 11.3998C18.6182 11.6037 18.0962 11.4303 17.8898 10.9987C17.6841 10.5714 17.8637 10.0582 18.291 9.8525ZM13.9346 10.0741C14.27 10.4095 14.8137 10.4095 15.149 10.0741L20.7734 4.44976C21.1087 4.11445 21.1087 3.57073 20.7734 3.23542C20.438 2.90006 19.8943 2.90006 19.559 3.23542L13.9346 8.85978C13.5993 9.19509 13.5993 9.73881 13.9346 10.0741ZM22.1641 21.0217C22.1643 21.0216 22.1646 21.0213 22.1649 21.0209C22.1647 21.0212 22.1644 21.0215 22.1641 21.0217ZM22.1641 21.0217L22.164 21.0219C22.164 21.0219 22.1641 21.0218 22.1641 21.0217ZM22.0005 16.4871C19.7819 14.3374 17.5208 13.2384 15.2046 15.4175C15.2029 15.4192 15.2013 15.4207 15.1996 15.4224L14.0387 16.5746C13.3132 16.1657 11.8586 15.1987 10.3343 13.6744C8.8098 12.1499 7.84263 10.695 7.43407 9.97018L8.58638 8.8092C8.58801 8.80757 8.58964 8.8059 8.59123 8.80426C10.77 6.48625 9.67183 4.22874 7.52161 2.00832C6.93101 1.39591 6.13751 1.04174 5.28724 1.01105C4.43676 0.980478 3.62003 1.27651 2.98675 1.84491C-1.1794 6.36943 1.84221 13.3953 6.20762 17.8012C6.21032 17.804 6.21311 17.8067 6.21586 17.8094C6.82329 18.416 7.51311 19.0163 8.26626 19.5938C8.64258 19.8824 9.18157 19.8112 9.47017 19.4349C9.75873 19.0585 9.68759 18.5195 9.31123 18.2309C8.61411 17.6964 7.97847 17.1432 7.42196 16.5867C7.41934 16.5841 7.41672 16.5816 7.41411 16.579C4.49957 13.6611 2.75044 10.0783 2.73507 6.99343C2.72704 5.39307 3.2085 4.05726 4.12746 3.12877L4.13403 3.12284C4.75821 2.56264 5.70318 2.59669 6.28537 3.20047C8.50854 5.50594 8.34753 6.59436 7.3652 7.60172L5.77347 9.2054C5.52385 9.4569 5.45434 9.83593 5.59851 10.1596C6.9141 13.0804 10.9953 17.1297 13.8492 18.4103C14.173 18.5544 14.552 18.4849 14.8035 18.2353L16.4069 16.6438C17.4144 15.6613 18.5028 15.5001 20.8085 17.7234C21.4122 18.3056 21.4463 19.2506 20.8856 19.8752L20.8799 19.8815C19.9514 20.8004 18.6166 21.2827 17.0154 21.2737C15.7501 21.2674 14.2849 20.9205 12.7783 20.2707C12.3429 20.0829 11.8376 20.2836 11.6497 20.7191C11.4619 21.1545 11.6626 21.6598 12.0981 21.8476C13.8396 22.5988 15.4912 22.9835 17.0069 22.9911C19.0728 23.0043 20.9065 22.2826 22.1641 21.0219C22.7324 20.3888 23.0285 19.5718 22.9978 18.7216C22.9671 17.8712 22.613 17.0777 22.0005 16.4871ZM13.0101 6.11895C13.4279 6.32285 13.9499 6.14939 14.1563 5.71778L15.8307 2.24012C16.0364 1.81284 15.8568 1.29965 15.4295 1.09395C15.0021 0.88817 14.4891 1.06785 14.2833 1.49513L12.6089 4.97279C12.4032 5.40007 12.5828 5.91321 13.0101 6.11895Z" fill="#F5CA35"/>
</svg>
